<svg width="16" height="16" viewBox="0 0 16 16" fill="none" xmlns="http://www.w3.org/2000/svg">
<path d="M2.5 0H0.5C0.224 0 0 0.224 0 0.5V2.5C0 2.776 0.224 3 0.5 3C0.776 3 1 2.776 1 2.5V1H2.5C2.776 1 3 0.776 3 0.5C3 0.224 2.776 0 2.5 0Z" fill="#8A8A99"/>
<path d="M15.5 13C15.224 13 15 13.224 15 13.5V15H13.5C13.224 15 13 15.224 13 15.5C13 15.776 13.224 16 13.5 16H15.5C15.776 16 16 15.776 16 15.5V13.5C16 13.224 15.776 13 15.5 13Z" fill="#8A8A99"/>
<path d="M15.5 0H13.5C13.224 0 13 0.224 13 0.5C13 0.776 13.224 1 13.5 1H15V2.5C15 2.776 15.224 3 15.5 3C15.776 3 16 2.776 16 2.5V0.5C16 0.224 15.776 0 15.5 0Z" fill="#8A8A99"/>
<path d="M2.5 15H1V13.5C1 13.224 0.776 13 0.5 13C0.224 13 0 13.224 0 13.5V15.5C0 15.776 0.224 16 0.5 16H2.5C2.776 16 3 15.776 3 15.5C3 15.224 2.776 15 2.5 15Z" fill="#8A8A99"/>
<path d="M5 4H4V13H5V4Z" fill="#8A8A99"/>
<path d="M7.06667 4H6V11H7.06667V4Z" fill="#8A8A99"/>
<path d="M11.0667 4H10V11H11.0667V4Z" fill="#8A8A99"/>
<path d="M9 4H8V13H9V4Z" fill="#8A8A99"/>
<path d="M13 4H12V13H13V4Z" fill="#8A8A99"/>
<path d="M7 12H6V13H7V12Z" fill="#8A8A99"/>
<path d="M11 12H10V13H11V12Z" fill="#8A8A99"/>
</svg>
