<svg width="4" height="13" viewBox="0 0 4 13" fill="none" xmlns="http://www.w3.org/2000/svg">
<path d="M1.58203 12.9825H0L1.65234 3.47278H3.23438L1.58203 12.9825ZM2.8916 0.00109863C3.16113 -0.0106201 3.38379 0.0714111 3.55957 0.247192C3.74121 0.417114 3.83203 0.6427 3.83203 0.92395C3.82617 1.19934 3.73535 1.42493 3.55957 1.60071C3.38965 1.77649 3.16699 1.87024 2.8916 1.88196C2.61621 1.89368 2.39062 1.81458 2.21484 1.64465C2.03906 1.47473 1.9541 1.25208 1.95996 0.976685C1.96582 0.701294 2.05371 0.472778 2.22363 0.291138C2.39355 0.109497 2.61621 0.0128174 2.8916 0.00109863Z" fill="black"/>
</svg>
