<svg width="12" height="14" viewBox="0 0 12 14" fill="none" xmlns="http://www.w3.org/2000/svg">
<path d="M10.4941 0V6.70117C10.4883 7.9082 10.1074 8.89551 9.35156 9.66309C8.60156 10.4307 7.58203 10.8613 6.29297 10.9551L5.84473 10.9727C4.44434 10.9727 3.32812 10.5947 2.49609 9.83887C1.66406 9.08301 1.24219 8.04297 1.23047 6.71875V0H2.90039V6.66602C2.90039 7.5918 3.15527 8.3125 3.66504 8.82812C4.1748 9.33789 4.90137 9.59277 5.84473 9.59277C6.7998 9.59277 7.5293 9.33789 8.0332 8.82812C8.54297 8.31836 8.79785 7.60059 8.79785 6.6748V0H10.4941Z" fill="black"/>
<path d="M0 12.5547H11.6719V13.4336H0V12.5547Z" fill="black"/>
</svg>
