<svg width="10" height="13" viewBox="0 0 10 13" fill="none" xmlns="http://www.w3.org/2000/svg">
<path d="M0.142578 12.7969V0H4.625C6.17773 0 7.35547 0.298828 8.1582 0.896484C8.96094 1.48828 9.3623 2.3584 9.3623 3.50684C9.3623 4.13379 9.20117 4.6875 8.87891 5.16797C8.55664 5.64258 8.1084 5.99121 7.53418 6.21387C8.19043 6.37793 8.70605 6.70898 9.08105 7.20703C9.46191 7.70508 9.65234 8.31445 9.65234 9.03516C9.65234 10.2656 9.25977 11.1973 8.47461 11.8301C7.68945 12.4629 6.57031 12.7852 5.11719 12.7969H0.142578ZM2.7793 7.22461V10.6787H5.03809C5.65918 10.6787 6.14258 10.5322 6.48828 10.2393C6.83984 9.94043 7.01562 9.53027 7.01562 9.00879C7.01562 7.83691 6.40918 7.24219 5.19629 7.22461H2.7793ZM2.7793 5.36133H4.73047C6.06055 5.33789 6.72559 4.80762 6.72559 3.77051C6.72559 3.19043 6.55566 2.77441 6.21582 2.52246C5.88184 2.26465 5.35156 2.13574 4.625 2.13574H2.7793V5.36133Z" fill="black"/>
</svg>
