<svg width="24" height="24" viewBox="0 0 24 24" fill="none" xmlns="http://www.w3.org/2000/svg">
<path d="M23.2977 18.8911L21.5198 8.82778C21.1518 6.74489 19.3495 5.23312 17.2344 5.23312H14.7192C15.0995 4.69256 15.3237 4.03467 15.3237 3.32498C15.3237 1.49161 13.832 0 11.9987 0C10.1653 0 8.67362 1.49161 8.67362 3.32503C8.67362 4.03472 8.89782 4.69261 9.27812 5.23317H6.7629C4.64781 5.23317 2.84551 6.74494 2.47749 8.82783L0.699619 18.8911C0.475228 20.1614 0.822009 21.4567 1.65095 22.4449C2.47993 23.4332 3.69512 24 4.98507 24H19.0123C20.3023 24 21.5175 23.4332 22.3464 22.445C23.1754 21.4567 23.522 20.1614 23.2977 18.8911ZM11.9987 1.41689C13.0508 1.41689 13.9068 2.27287 13.9068 3.32503C13.9068 4.37719 13.0508 5.23317 11.9987 5.23317C10.9465 5.23317 10.0905 4.37719 10.0905 3.32503C10.0905 2.27287 10.9465 1.41689 11.9987 1.41689ZM21.2608 21.5344C20.7017 22.2009 19.8822 22.5831 19.0123 22.5831H4.98507C4.11517 22.5831 3.2956 22.2009 2.73657 21.5344C2.17754 20.8679 1.94363 19.9943 2.09499 19.1377L3.87287 9.07434C4.12107 7.66964 5.33654 6.65002 6.76295 6.65002H17.2345C18.6609 6.65002 19.8764 7.66955 20.1246 9.07425L21.9024 19.1376C22.0538 19.9943 21.8198 20.8679 21.2608 21.5344Z" fill="black"/>
<path d="M9.67069 14.6164L11.446 12.7819C11.7181 12.5008 11.7107 12.0523 11.4295 11.7802C11.1483 11.508 10.6998 11.5155 10.4277 11.7966L8.44233 13.8482V12.2893C8.44233 11.898 8.12512 11.5808 7.73386 11.5808C7.34259 11.5808 7.02539 11.898 7.02539 12.2893V16.9435C7.02539 17.3348 7.34259 17.652 7.73386 17.652C8.12512 17.652 8.44233 17.3348 8.44233 16.9435V15.3846L10.4277 17.4362C10.5667 17.5798 10.7517 17.652 10.9369 17.652C11.1143 17.652 11.292 17.5858 11.4295 17.4527C11.7107 17.1805 11.718 16.7321 11.446 16.4509L9.67069 14.6164Z" fill="black"/>
<path d="M16.2674 14.1083H15.2039C14.8126 14.1083 14.4954 14.4255 14.4954 14.8167C14.4954 15.208 14.8126 15.5252 15.2039 15.5252H15.5472C15.4797 15.9276 15.129 16.2353 14.7076 16.2353C14.2382 16.2353 13.8563 15.8534 13.8563 15.384V13.8492C13.8563 13.3798 14.2382 12.9979 14.7076 12.9979C14.9717 12.9979 15.2165 13.1175 15.3794 13.3262C15.6201 13.6346 16.0653 13.6895 16.3738 13.4487C16.6822 13.2079 16.737 12.7628 16.4963 12.4544C16.0631 11.8994 15.4111 11.5811 14.7076 11.5811C13.457 11.5811 12.4395 12.5986 12.4395 13.8492V15.384C12.4395 16.6347 13.457 17.6522 14.7076 17.6522C15.9583 17.6522 16.9758 16.6347 16.9758 15.384V14.8168C16.9758 14.4255 16.6586 14.1083 16.2674 14.1083Z" fill="black"/>
</svg>
