<svg width="15" height="14" viewBox="0 0 15 14" fill="none" xmlns="http://www.w3.org/2000/svg">
<path fill-rule="evenodd" clip-rule="evenodd" d="M3.10742 3.48926C3.10742 4.03689 3.23148 4.53136 3.4796 4.97266H5.73001C5.63472 4.91266 5.54861 4.85179 5.47168 4.79004C5.03223 4.42676 4.8125 3.98438 4.8125 3.46289C4.8125 2.8125 5.04395 2.30566 5.50684 1.94238C5.97559 1.57324 6.62598 1.38867 7.45801 1.38867C8.35449 1.38867 9.04883 1.61133 9.54102 2.05664C10.0332 2.49609 10.2793 3.10254 10.2793 3.87598H11.9756C11.9756 3.16699 11.7852 2.51367 11.4043 1.91602C11.0293 1.31836 10.4961 0.849609 9.80469 0.509766C9.11914 0.169922 8.33691 0 7.45801 0C6.16895 0 5.12012 0.331055 4.31152 0.993164C3.50879 1.64941 3.10742 2.48145 3.10742 3.48926ZM11.5625 8.02441C11.5521 8.00708 11.5416 7.98983 11.5308 7.97266H9.1432C9.34437 8.07725 9.51213 8.18239 9.64648 8.28809C10.0859 8.62793 10.3057 9.11133 10.3057 9.73828C10.3057 10.3652 10.0684 10.8604 9.59375 11.2236C9.11914 11.5869 8.43652 11.7686 7.5459 11.7686C6.59082 11.7686 5.82617 11.5459 5.25195 11.1006C4.68359 10.6494 4.39941 10.0371 4.39941 9.26367H2.70312C2.70312 10.0078 2.9082 10.6729 3.31836 11.2588C3.73438 11.8447 4.32324 12.3076 5.08496 12.6475C5.84668 12.9814 6.66699 13.1484 7.5459 13.1484C8.89941 13.1484 9.98047 12.8379 10.7891 12.2168C11.5977 11.5898 12.002 10.7578 12.002 9.7207C12.002 9.07031 11.8555 8.50488 11.5625 8.02441ZM0 6.97266H15V5.97266H0V6.97266Z" fill="black"/>
</svg>
