<svg width="117" height="56" viewBox="0 0 117 56" fill="none" xmlns="http://www.w3.org/2000/svg">
<path d="M10.016 38.512H3.968V39.504C3.968 43.584 2.816 46.208 1.376 48.672H0.48V52.464H1.68V50H10.448V52.464H11.648V48.672H10.016V38.512ZM2.88 48.672C4.128 46.656 5.264 43.04 5.216 39.84H8.768V48.672H2.88ZM13.1754 46.064C13.1754 48.416 15.0154 50.176 17.1594 50.176C19.3034 50.176 21.1434 48.416 21.1434 46.064C21.1434 43.712 19.3034 41.952 17.1594 41.952C15.0154 41.952 13.1754 43.712 13.1754 46.064ZM17.1594 43.232C18.7594 43.232 19.9594 44.4 19.9594 46.064C19.9594 47.728 18.7594 48.896 17.1594 48.896C15.5594 48.896 14.3594 47.728 14.3594 46.064C14.3594 44.4 15.5594 43.232 17.1594 43.232ZM29.8091 38.272C28.5131 38.992 26.7691 39.088 25.4731 39.648C23.7611 40.4 22.9451 42.176 22.9451 44.816C22.9451 48.432 24.6891 50.176 27.1051 50.176C29.2971 50.176 30.9931 48.384 30.9931 46.128C30.9931 43.904 29.3931 42.352 27.2811 42.352C26.3531 42.352 24.9611 42.64 24.2091 43.808C24.2251 42.592 24.7531 41.248 26.4651 40.688C27.7931 40.256 29.1531 40.24 30.2411 39.392L29.8091 38.272ZM27.0571 48.896C25.4891 48.896 24.2571 47.664 24.2091 45.696C24.5931 44.384 25.9211 43.632 27.0731 43.632C28.7051 43.632 29.7931 44.736 29.7931 46.272C29.7931 47.888 28.6731 48.896 27.0571 48.896ZM35.8925 41.952C34.6605 41.952 33.5245 42.528 33.0925 43.248L33.4125 44.304C33.8765 43.696 34.8045 43.232 35.7965 43.232C37.0765 43.232 38.0525 43.872 38.0525 45.328V45.824C37.4445 45.264 36.3565 45.104 35.7645 45.104C33.9725 45.104 32.6125 46.048 32.6125 47.6C32.6125 49.184 33.7965 50.176 35.7485 50.176C36.7405 50.176 37.6845 49.792 38.0845 49.248V50H39.2365V45.008C39.2365 43.024 37.8125 41.952 35.8925 41.952ZM38.0525 47.92C37.7645 48.496 36.8525 48.896 35.8605 48.896C34.5005 48.896 33.7965 48.32 33.7965 47.6C33.7965 46.848 34.5965 46.384 35.8605 46.384C36.8365 46.384 37.7485 46.656 38.0525 47.2V47.92ZM41.8756 42.128V50H45.0276C46.5476 50 47.7476 49.072 47.7476 47.728C47.7476 46.848 47.3476 46.24 46.6756 45.888C47.1236 45.536 47.3636 44.976 47.3636 44.272C47.3636 42.96 46.2756 42.128 44.7396 42.128H41.8756ZM45.3956 46.656C46.0356 46.656 46.5636 47.056 46.5636 47.696C46.5636 48.32 46.0356 48.72 45.3956 48.72H43.0596V46.656H45.3956ZM45.0596 43.408C45.6836 43.408 46.1796 43.792 46.1796 44.4C46.1796 44.992 45.6836 45.376 45.0596 45.376H43.0596V43.408H45.0596ZM49.9381 42.128V50H51.1221L55.6341 44.112V50H56.8181V42.128H55.6341L51.1221 48.016V42.128H49.9381ZM65.3559 42.128H58.7639V43.408H61.4679V50H62.6519V43.408H65.3559V42.128ZM70.2891 50C71.9211 50 73.2651 48.848 73.2651 47.28C73.2651 45.76 71.9371 44.56 70.3051 44.56H68.4971V42.128H67.3131V50H70.2891ZM68.4971 48.72V45.84H70.5611C71.3931 45.84 72.0811 46.384 72.0811 47.248C72.0811 48.096 71.4411 48.72 70.5611 48.72H68.4971ZM83.6074 53.408H84.7914V50.176C87.3994 50.128 89.2234 48.56 89.2234 46.064C89.2234 43.568 87.3994 42 84.7914 41.952V38.352H83.6074V41.952C80.9994 42 79.1754 43.568 79.1754 46.064C79.1754 48.56 80.9994 50.128 83.6074 50.176V53.408ZM88.0394 46.064C88.0394 48.016 86.7274 48.896 84.7914 48.896V43.232C86.7274 43.232 88.0394 44.112 88.0394 46.064ZM80.3594 46.064C80.3594 44.112 81.6714 43.232 83.6074 43.232V48.896C81.6714 48.896 80.3594 48.016 80.3594 46.064ZM90.8629 46.064C90.8629 48.416 92.7029 50.176 94.8469 50.176C96.9909 50.176 98.8309 48.416 98.8309 46.064C98.8309 43.712 96.9909 41.952 94.8469 41.952C92.7029 41.952 90.8629 43.712 90.8629 46.064ZM94.8469 43.232C96.4469 43.232 97.6469 44.4 97.6469 46.064C97.6469 47.728 96.4469 48.896 94.8469 48.896C93.2469 48.896 92.0469 47.728 92.0469 46.064C92.0469 44.4 93.2469 43.232 94.8469 43.232ZM106.543 42.128H99.9514V43.408H102.655V50H103.839V43.408H106.543V42.128ZM107.691 46.064C107.691 48.416 109.531 50.176 111.675 50.176C113.819 50.176 115.659 48.416 115.659 46.064C115.659 43.712 113.819 41.952 111.675 41.952C109.531 41.952 107.691 43.712 107.691 46.064ZM111.675 43.232C113.275 43.232 114.475 44.4 114.475 46.064C114.475 47.728 113.275 48.896 111.675 48.896C110.075 48.896 108.875 47.728 108.875 46.064C108.875 44.4 110.075 43.232 111.675 43.232Z" fill="#5032C8"/>
<g clip-path="url(#clip0)">
<path d="M58.1537 8.90698C56.8017 8.90698 55.7056 10.003 55.7056 11.3551C55.7056 12.7072 56.8016 13.8033 58.1537 13.8033C59.5058 13.8033 60.6019 12.7072 60.6019 11.3551C60.6019 10.003 59.5058 8.90698 58.1537 8.90698ZM58.1537 12.6374C57.4455 12.6374 56.8713 12.0633 56.8713 11.3551C56.8713 10.6468 57.4455 10.0727 58.1537 10.0727C58.862 10.0727 59.4361 10.6468 59.4361 11.3551C59.4361 12.0633 58.862 12.6374 58.1537 12.6374Z" fill="#5032C8"/>
<path d="M67.9173 3.31122L52.0045 1.50431C51.387 1.41651 50.7612 1.59681 50.2851 1.99979C49.8089 2.36897 49.5037 2.91621 49.4399 3.51528L49.1485 5.90512H48.2449C46.9626 5.90512 46.0008 7.04172 46.0008 8.32409V20.2441C45.9685 21.4669 46.9336 22.4845 48.1565 22.5168C48.186 22.5176 48.2155 22.5177 48.2449 22.5174H64.2451C65.5275 22.5174 66.6933 21.5265 66.6933 20.2441V19.7778C67.0908 19.701 67.468 19.5422 67.8007 19.3115C68.273 18.9139 68.5753 18.3509 68.6459 17.7377L69.9866 5.90512C70.1233 4.6198 69.2009 3.46356 67.9173 3.31122ZM65.5275 20.2441C65.5275 20.8853 64.8863 21.3516 64.2451 21.3516H48.2449C47.6657 21.3686 47.1824 20.9128 47.1654 20.3336C47.1645 20.3038 47.1649 20.2739 47.1666 20.2441V18.0874L51.684 14.765C52.2266 14.3483 52.991 14.3854 53.4909 14.8524L56.6676 17.6502C57.1501 18.0553 57.7573 18.2817 58.3872 18.2914C58.8797 18.2975 59.364 18.1663 59.7861 17.9125L65.5275 14.5901V20.2441H65.5275ZM65.5275 13.2203L59.174 16.9216C58.6285 17.2449 57.9379 17.1863 57.4545 16.7759L54.2486 13.9489C53.3298 13.1594 51.9869 13.111 51.0136 13.8323L47.1666 16.6302V8.32409C47.1666 7.68291 47.6037 7.0709 48.2449 7.0709H64.2451C64.9302 7.09929 65.4834 7.63995 65.5275 8.32409V13.2203ZM68.8219 5.74776C68.8215 5.75161 68.8212 5.75551 68.8208 5.75936L67.451 17.592C67.4533 17.8988 67.3134 18.1893 67.0721 18.3788C66.9555 18.4954 66.6932 18.5537 66.6932 18.612V8.32409C66.6472 6.99637 65.5732 5.93519 64.2451 5.90512H50.3142L50.5765 3.63187C50.6334 3.33749 50.7873 3.07073 51.0137 2.87409C51.2693 2.69737 51.5783 2.61498 51.888 2.64092L67.7717 4.47699C68.4125 4.53785 68.8828 5.1068 68.8219 5.74776Z" fill="#5032C8"/>
</g>
<defs>
<clipPath id="clip0">
<rect width="24" height="24" fill="white" transform="translate(46)"/>
</clipPath>
</defs>
</svg>
