<svg width="106" height="58" viewBox="0 0 106 58" fill="none" xmlns="http://www.w3.org/2000/svg">
<g clip-path="url(#clip0)">
<path d="M54.2156 7.80301H56.375C56.6339 7.80301 56.8437 7.59315 56.8437 7.33426V5.17126C56.8437 4.91237 56.6339 4.70251 56.375 4.70251H54.2156C53.9567 4.70251 53.7468 4.91237 53.7468 5.17126V7.33426C53.7468 7.59315 53.9567 7.80301 54.2156 7.80301ZM54.6843 5.64006H55.9062V6.86556H54.6843V5.64006Z" fill="#5032C8"/>
<path d="M49.9639 7.80301H52.1233C52.3821 7.80301 52.592 7.59315 52.592 7.33426V5.17126C52.592 4.91237 52.3821 4.70251 52.1233 4.70251H49.9639C49.705 4.70251 49.4951 4.91237 49.4951 5.17126V7.33426C49.4951 7.59315 49.705 7.80301 49.9639 7.80301ZM50.4326 5.64006H51.6545V6.86556H50.4326V5.64006Z" fill="#5032C8"/>
<path d="M54.2156 12.5645H56.375C56.6339 12.5645 56.8437 12.3546 56.8437 12.0958V9.9328C56.8437 9.67391 56.6339 9.46405 56.375 9.46405H54.2156C53.9567 9.46405 53.7468 9.67391 53.7468 9.9328V12.0958C53.7468 12.3546 53.9567 12.5645 54.2156 12.5645ZM54.6843 10.4015H55.9062V11.627H54.6843V10.4015Z" fill="#5032C8"/>
<path d="M49.9639 12.5645H52.1233C52.3821 12.5645 52.592 12.3546 52.592 12.0958V9.9328C52.592 9.67391 52.3821 9.46405 52.1233 9.46405H49.9639C49.705 9.46405 49.4951 9.67391 49.4951 9.9328V12.0958C49.4951 12.3546 49.705 12.5645 49.9639 12.5645ZM50.4326 10.4015H51.6545V11.627H50.4326V10.4015Z" fill="#5032C8"/>
<path d="M54.2156 17.326H56.375C56.6339 17.326 56.8437 17.1162 56.8437 16.8573V14.6943C56.8437 14.4354 56.6339 14.2255 56.375 14.2255H54.2156C53.9567 14.2255 53.7468 14.4354 53.7468 14.6943V16.8573C53.7468 17.1162 53.9567 17.326 54.2156 17.326ZM54.6843 15.1631H55.9062V16.3886H54.6843V15.1631Z" fill="#5032C8"/>
<path d="M52.1233 17.326C52.3821 17.326 52.592 17.1162 52.592 16.8573V14.6943C52.592 14.4354 52.3821 14.2255 52.1233 14.2255H49.9639C49.705 14.2255 49.4951 14.4354 49.4951 14.6943V16.8573C49.4951 17.1162 49.705 17.326 49.9639 17.326H52.1233ZM50.4326 15.1631H51.6545V16.3886H50.4326V15.1631Z" fill="#5032C8"/>
<path d="M62.747 23.0625H62.3112V8.90381C62.3112 8.64492 62.1013 8.43506 61.8424 8.43506H58.7884V2.62298C58.7884 2.36409 58.5786 2.15423 58.3197 2.15423H57.321V0.46875C57.321 0.209859 57.1111 0 56.8522 0H49.485C49.2261 0 49.0162 0.209859 49.0162 0.46875V2.15423H48.0175C47.7586 2.15423 47.5488 2.36409 47.5488 2.62298V11.6446H44.9768C44.718 11.6446 44.5081 11.8545 44.5081 12.1133V23.0625H43.2517C42.9928 23.0625 42.783 23.2724 42.783 23.5312C42.783 23.7901 42.9928 24 43.2517 24H62.747C63.0059 24 63.2158 23.7901 63.2158 23.5312C63.2158 23.2724 63.0059 23.0625 62.747 23.0625ZM49.9537 0.9375H56.3834V2.15423H49.9537V0.9375ZM45.4456 12.5821H47.5488V23.0625H45.4456V12.5821ZM48.4863 3.09173H57.8509V23.0625H55.5175V19.9698C55.5175 19.7109 55.3076 19.501 55.0487 19.501H51.2884C51.0295 19.501 50.8197 19.7109 50.8197 19.9698V23.0625H48.4863V3.09173ZM51.7572 23.0625V20.4385H54.58V23.0625H51.7572ZM58.7884 23.0625V9.37256H61.3737V23.0625H58.7884Z" fill="#5032C8"/>
</g>
<path d="M3.12 40.512L3.104 40.992C2.816 49.968 1.904 50.64 0.16 50.784L0.352 52.016C0.448 52.048 0.592 52.064 0.704 52.064C2.912 52.064 4.08 49.952 4.352 42.112V41.84H8.288V52H9.536V40.512H3.12ZM11.8316 48.064C11.8316 50.416 13.6716 52.176 15.8156 52.176C17.9596 52.176 19.7996 50.416 19.7996 48.064C19.7996 45.712 17.9596 43.952 15.8156 43.952C13.6716 43.952 11.8316 45.712 11.8316 48.064ZM15.8156 45.232C17.4156 45.232 18.6156 46.4 18.6156 48.064C18.6156 49.728 17.4156 50.896 15.8156 50.896C14.2156 50.896 13.0156 49.728 13.0156 48.064C13.0156 46.4 14.2156 45.232 15.8156 45.232ZM21.9694 44.128V52H23.1534V45.408H26.8014V44.128H21.9694ZM27.9723 48.064C27.9723 50.416 29.8123 52.176 31.9563 52.176C34.1003 52.176 35.9403 50.416 35.9403 48.064C35.9403 45.712 34.1003 43.952 31.9563 43.952C29.8123 43.952 27.9723 45.712 27.9723 48.064ZM31.9563 45.232C33.5563 45.232 34.7563 46.4 34.7563 48.064C34.7563 49.728 33.5563 50.896 31.9563 50.896C30.3563 50.896 29.1562 49.728 29.1562 48.064C29.1562 46.4 30.3563 45.232 31.9563 45.232ZM42.4225 52H43.6065V48.448L47.5105 52H49.4305L44.9025 47.952L49.0625 44.128H47.3505L43.6065 47.584V44.128H42.4225V52ZM49.9254 48.064C49.9254 50.416 51.7654 52.176 53.9094 52.176C56.0534 52.176 57.8934 50.416 57.8934 48.064C57.8934 45.712 56.0534 43.952 53.9094 43.952C51.7654 43.952 49.9254 45.712 49.9254 48.064ZM53.9094 45.232C55.5094 45.232 56.7094 46.4 56.7094 48.064C56.7094 49.728 55.5094 50.896 53.9094 50.896C52.3094 50.896 51.1094 49.728 51.1094 48.064C51.1094 46.4 52.3094 45.232 53.9094 45.232ZM60.0631 44.128V52H61.2471V45.408H65.5831V52H66.7671V44.128H60.0631ZM72.205 43.952C70.973 43.952 69.837 44.528 69.405 45.248L69.725 46.304C70.189 45.696 71.117 45.232 72.109 45.232C73.389 45.232 74.365 45.872 74.365 47.328V47.824C73.757 47.264 72.669 47.104 72.077 47.104C70.285 47.104 68.925 48.048 68.925 49.6C68.925 51.184 70.109 52.176 72.061 52.176C73.053 52.176 73.997 51.792 74.397 51.248V52H75.549V47.008C75.549 45.024 74.125 43.952 72.205 43.952ZM74.365 49.92C74.077 50.496 73.165 50.896 72.173 50.896C70.813 50.896 70.109 50.32 70.109 49.6C70.109 48.848 70.909 48.384 72.173 48.384C73.149 48.384 74.061 48.656 74.365 49.2V49.92ZM78.1881 44.128V52H79.3721V48.576H83.8201V52H85.0041V44.128H83.8201V47.296H79.3721V44.128H78.1881ZM87.7194 44.128V52H88.9034L93.4154 46.112V52H94.5994V44.128H93.4154L88.9034 50.016V44.128H87.7194ZM97.3131 44.128V52H98.4971L103.009 46.112V52H104.193V44.128H103.009L98.4971 50.016V44.128H97.3131Z" fill="#5032C8"/>
<defs>
<clipPath id="clip0">
<rect width="24" height="24" fill="white" transform="translate(41)"/>
</clipPath>
</defs>
</svg>
