<svg width="24" height="24" viewBox="0 0 24 24" fill="none" xmlns="http://www.w3.org/2000/svg">
<g clip-path="url(#clip0)">
<path d="M16.4939 18.3804H12.7475C12.3336 18.3804 11.9982 18.0449 11.9982 17.6311C11.9982 17.2173 12.3336 16.8818 12.7475 16.8818H16.4939C16.907 16.8818 17.2432 16.5457 17.2432 16.1325V7.89043C17.2432 7.47729 16.907 7.14114 16.4939 7.14114H8.25176C7.83862 7.14114 7.50247 7.47729 7.50247 7.89043V11.6368C7.50247 12.0506 7.16703 12.3861 6.75319 12.3861C6.33935 12.3861 6.00391 12.0506 6.00391 11.6368V7.89043C6.00391 6.65097 7.01225 5.64258 8.25176 5.64258H16.4939C17.7334 5.64258 18.7417 6.65097 18.7417 7.89043V16.1325C18.7417 17.372 17.7333 18.3804 16.4939 18.3804Z" fill="#330066"/>
<path d="M19.9619 4.82604C19.6804 4.82604 19.5239 4.69491 19.3707 4.54548C19.0744 4.25658 19.0685 3.78219 19.3574 3.48594C19.6463 3.18965 20.1207 3.1837 20.4169 3.4726C20.4435 3.49854 20.4696 3.52449 20.4957 3.55095C20.9635 4.02585 20.6208 4.82604 19.9619 4.82604Z" fill="#330066"/>
<path d="M11.9993 24C5.38632 24.0002 0.029231 18.6565 0.0117634 12.0432C-0.0130566 2.67195 10.3225 -3.1726 18.3425 1.83622C18.6935 2.05543 18.8003 2.51764 18.5812 2.86864C18.3619 3.21958 17.8998 3.32645 17.5487 3.10724C10.5633 -1.25542 1.48851 3.80594 1.51033 12.0393C1.52559 17.8139 6.2287 22.5013 11.9998 22.5015C16.0298 22.5015 19.7565 20.1459 21.4849 16.4986C22.9956 13.3129 22.8187 9.47005 20.8568 6.38732C20.6346 6.0382 20.7375 5.57509 21.0866 5.35288C21.4357 5.13063 21.8988 5.23361 22.121 5.58268C24.3645 9.10778 24.5665 13.4975 22.839 17.1404C20.8924 21.2482 16.7305 24 11.9993 24Z" fill="#330066"/>
<path d="M13.4938 11.938C13.472 11.7148 13.3479 11.4985 13.1318 11.3693C12.8937 11.2271 12.944 11.2628 10.6289 11.2628C10.2151 11.2628 9.87963 11.5983 9.87963 12.0121C9.87963 12.4258 10.2151 12.7613 10.6289 12.7613H10.9393L6.97339 16.7272C6.68075 17.0198 6.68075 17.4943 6.97339 17.7869C7.26594 18.0795 7.74042 18.0795 8.03302 17.7869L11.9989 13.821V14.1314C11.9989 14.5451 12.3344 14.8806 12.7482 14.8806C13.1621 14.8806 13.4975 14.5451 13.4975 14.1314C13.4975 11.8221 13.4991 11.9923 13.4938 11.938Z" fill="#330066"/>
</g>
<defs>
<clipPath id="clip0">
<rect width="24" height="24" fill="white"/>
</clipPath>
</defs>
</svg>
