<?xml version="1.0" encoding="UTF-8"?>
<!-- Generator: Adobe Illustrator 25.0.1, SVG Export Plug-In . SVG Version: 6.00 Build 0)  -->
<svg id="svg121" width="700" height="280" version="1.1" viewBox="0 0 700 280" xml:space="preserve" xmlns="http://www.w3.org/2000/svg" xmlns:cc="http://creativecommons.org/ns#" xmlns:dc="http://purl.org/dc/elements/1.1/" xmlns:rdf="http://www.w3.org/1999/02/22-rdf-syntax-ns#" xmlns:xlink="http://www.w3.org/1999/xlink"><metadata id="metadata127"><rdf:RDF><cc:Work rdf:about=""><dc:format>image/svg+xml</dc:format><dc:type rdf:resource="http://purl.org/dc/dcmitype/StillImage"/><dc:title/></cc:Work></rdf:RDF></metadata><style id="style2" type="text/css">
	.st0{display:none;}
	.st1{display:inline;fill:#5B5B5B;}
	.st2{fill:#FFFFFF;}
	.st3{clip-path:url(#SVGID_2_);fill:url(#SVGID_3_);}
	.st4{clip-path:url(#SVGID_5_);fill:url(#SVGID_6_);}
	.st5{clip-path:url(#SVGID_8_);fill:url(#SVGID_9_);}
</style><g id="Слой_3" class="st0" transform="translate(0 49.468)" display="none"><rect id="rect4" class="st1" width="516.39" height="230.53" display="inline" fill="#5b5b5b"/></g><g id="Слой_1" transform="translate(0 -2.7386)"><path id="path7" d="m516.39 84.989v-13.83h-15.968v-15.85h-2.5193l-27.16 27.159v2.5207h13.826v24.852c0 11.693 5.6224 18.89 18.329 18.89 4.7224 0 10.345-1.1247 13.381-3.0362v-13.155c-2.4732 1.236-5.172 2.0231-8.2082 2.0231-5.2853 0-7.6472-2.2487-7.6472-7.8712v-21.703zm-72.191-4.3839v-9.4457h-15.855v56.111h15.855v-32.722c2.0247-4.4978 8.0959-9.7819 16.417-9.7819 1.687 0 3.3734 0.11161 4.9478 0.56155v-15.518c-0.67447-0.11161-1.2375-0.11161-1.7987-0.11161-8.7715 0-16.53 5.3969-19.566 10.908zm-44.983 25.863c-2.361 4.498-7.4212 8.4327-13.943 8.4327-8.8834 0-15.18-6.858-15.18-15.742 0-8.7703 6.297-15.63 15.18-15.63 6.522 0 11.582 3.935 13.943 8.3215zm0-28.45c-3.1486-4.0466-8.9958-8.3203-18.441-8.3203-15.518 0-26.425 13.044-26.425 29.461 0 16.53 10.907 29.573 26.425 29.573 9.4451 0 15.292-4.1609 18.441-8.3203v6.8585h15.855v-56.111h-15.855zm-74.444-8.3203c-8.5456 0-15.742 4.3852-19.34 9.5574-2.2498-4.8349-8.5463-9.5574-17.429-9.5574-7.8716 0-13.719 3.8237-17.092 8.3203v-6.8585h-15.855v56.111h15.855v-35.646c2.1359-4.0478 6.9719-7.4212 11.807-7.4212 3.9357 0 9.333 1.6874 9.333 11.582v31.485h15.855v-35.42c2.0247-4.1609 6.7469-7.647 11.695-7.647 3.9358 0 9.3331 1.5746 9.3331 11.582v31.485h15.855v-35.083c0-15.181-8.4329-22.489-20.016-22.489zm-98.396 23.727c-7.084-1.6874-13.943-2.3619-13.943-6.4096 0-2.699 2.8103-4.4978 8.9951-4.4978 7.6464 0 15.292 2.9234 20.353 5.8464v-13.494c-5.0608-3.149-13.381-5.1724-21.027-5.1724-15.517 0-24.738 6.5227-24.738 17.205 0 10.457 6.2968 14.281 18.216 17.429 8.2087 2.2491 14.393 2.8118 14.393 6.7468 0 3.0362-3.4861 4.7236-9.6703 4.7236-10.121 0-18.892-3.7105-22.939-6.4096v14.055c5.0601 3.149 14.056 5.2853 23.614 5.2853 15.293 0 25.076-7.1971 25.076-17.542 0-10.233-6.8589-15.068-18.329-17.766z" fill="#4b2e87"/><g id="g26"><defs id="defs10"><path id="SVGID_1_" d="m10.956 79.376c-10.956 10.956-10.956 28.72 0 39.677 10.959 10.956 28.721 10.956 39.678 0l68.42-68.42c10.957-10.957 10.957-28.721-1e-3 -39.678-10.957-10.955-28.72-10.955-39.676 2e-6z"/></defs><clipPath id="SVGID_2_"><use id="use12" width="100%" height="100%" xlink:href="#SVGID_1_"/></clipPath><linearGradient id="SVGID_3_" x1="10.956" x2="119.05" y1="119.05" y2="10.959" gradientUnits="userSpaceOnUse"><stop id="stop15" stop-color="#1B69AA" offset="0"/><stop id="stop17" stop-color="#2A7EB9" offset=".20763"/><stop id="stop19" stop-color="#4EB1DC" offset=".73829"/><stop id="stop21" stop-color="#5CC4E9" offset="1"/></linearGradient><rect id="rect24" class="st3" width="130.01" height="130.01" clip-path="url(#SVGID_2_)" fill="url(#SVGID_3_)"/></g><g id="g47"><defs id="defs29"><path id="SVGID_4_" d="m39.297 147.8c-10.956 10.956-10.956 28.719 0 39.676 10.958 10.959 28.721 10.959 39.678 1e-3l68.421-68.421c10.955-10.956 10.955-28.719-3e-3 -39.677-10.956-10.955-28.719-10.955-39.676 0z"/></defs><clipPath id="SVGID_5_"><use id="use31" width="100%" height="100%" xlink:href="#SVGID_4_"/></clipPath><linearGradient id="SVGID_6_" x1="39.301" x2="147.4" y1="187.47" y2="79.376" gradientUnits="userSpaceOnUse"><stop id="stop34" stop-color="#4B2E87" offset="0"/><stop id="stop36" stop-color="#4B2E87" offset=".05"/><stop id="stop38" stop-color="#4B2E87" offset=".13"/><stop id="stop40" stop-color="#6DBC8E" offset=".85"/><stop id="stop42" stop-color="#6DBC8E" offset="1"/></linearGradient><rect id="rect45" class="st4" x="28.341" y="68.421" width="130.01" height="130.01" clip-path="url(#SVGID_5_)" fill="url(#SVGID_6_)"/></g><g id="g70"><defs id="defs50"><path id="SVGID_7_" d="m30.794 71.158c-15.495 0-28.055 12.562-28.055 28.057s12.56 28.055 28.055 28.055h96.761c15.495 0 28.055-12.56 28.055-28.055s-12.56-28.055-28.055-28.057z"/></defs><clipPath id="SVGID_8_"><use id="use52" width="100%" height="100%" xlink:href="#SVGID_7_"/></clipPath><linearGradient id="SVGID_9_" x1="2.7388" x2="155.61" y1="99.214" y2="99.214" gradientUnits="userSpaceOnUse"><stop id="stop55" stop-color="#0D87C9" offset="0"/><stop id="stop57" stop-color="#2D99B5" offset=".18315"/><stop id="stop59" stop-color="#49A8A4" offset=".3868"/><stop id="stop61" stop-color="#5DB398" offset=".5915"/><stop id="stop63" stop-color="#69BA90" offset=".79594"/><stop id="stop65" stop-color="#6DBC8E" offset="1"/></linearGradient><rect id="rect68" class="st5" x="2.7388" y="71.158" width="152.87" height="56.112" clip-path="url(#SVGID_8_)" fill="url(#SVGID_9_)"/></g></g><g transform="translate(2,-2)" fill="#000000" fill-opacity=".92157"><g id="g4808" transform="matrix(1.2989,0,0,1.2989,-59.161,-17.996)" fill="#000000" fill-opacity=".92157"><g id="g4715" transform="translate(115.84,-3.0796)"><path id="path72" d="m206.71 183.78c-2.7354 0-4.8594-1.044-5.4346-2.375v9.6104h-3.2764v-25.629h3.168v1.9082c0.57617-1.332 2.7354-2.3398 5.4717-2.3398 5.0029 0 9.2861 3.8516 9.2861 9.4307 0 5.543-4.3193 9.3945-9.2148 9.3945zm-0.10742-15.334c-2.4834 0-4.7158 1.2598-5.3272 2.9883v5.8672c0.61133 1.7275 2.8438 2.9873 5.3272 2.9873 3.6357 0 6.0469-2.3398 6.0469-5.9756 0-3.5635-2.4111-5.8672-6.0469-5.8672z"/><path id="path74" d="m234.43 177.91 0.86426 2.5557c-0.75586 1.584-3.2031 3.3115-6.5869 3.3115-5.3633 0-9.3232-3.6348-9.3232-9.3945 0-5.0391 3.3838-9.4307 8.8193-9.4307 5.1836 0 8.3867 4.3193 8.3867 9.3945 0 0.43164-0.0361 0.79199-0.10839 1.2236h-13.75c0.32422 3.168 2.7002 4.7158 6.1553 4.7158 2.3037 0 4.5352-1.2236 5.543-2.376zm-1.3311-5.6514c-0.18066-2.1592-2.2676-3.8154-4.8955-3.8154s-4.9678 1.6201-5.2559 3.8154z"/><path id="path76" d="m241.27 183.34v-17.962h3.2764v14.471h6.8027v-14.471h3.2754v14.471h6.8037v-14.471h3.2754v17.962z"/><path id="path78" d="m284.43 177.91 0.86426 2.5557c-0.75586 1.584-3.2031 3.3115-6.5869 3.3115-5.3633 0-9.3232-3.6348-9.3232-9.3945 0-5.0391 3.3838-9.4307 8.8193-9.4307 5.1836 0 8.3867 4.3193 8.3867 9.3945 0 0.43164-0.0361 0.79199-0.1084 1.2236h-13.75c0.32422 3.168 2.7002 4.7158 6.1553 4.7158 2.3037 0 4.5352-1.2236 5.543-2.376zm-1.331-5.6514c-0.18067-2.1592-2.2676-3.8154-4.8955-3.8154s-4.9678 1.6201-5.2559 3.8154z"/><path id="path80" d="m294.55 165.38v6.9473h9.4307v-6.9473h3.2754v17.962h-3.2754v-7.5234h-9.4307v7.5234h-3.2764v-17.962z"/><path id="path82" d="m316.43 165.38v12.562l9.5742-12.562h3.2754v17.962h-3.2754v-12.562l-9.5742 12.562h-3.2764v-17.962z"/><path id="path84" d="m349.01 177.91 0.86426 2.5557c-0.75586 1.584-3.2031 3.3115-6.5869 3.3115-5.3633 0-9.3232-3.6348-9.3232-9.3945 0-5.0391 3.3838-9.4307 8.8193-9.4307 5.1836 0 8.3867 4.3193 8.3867 9.3945 0 0.43164-0.0361 0.79199-0.10839 1.2236h-13.75c0.32421 3.168 2.7002 4.7158 6.1553 4.7158 2.3037 0 4.5352-1.2236 5.543-2.376zm-1.3311-5.6514c-0.18066-2.1592-2.2676-3.8154-4.8955-3.8154s-4.9678 1.6201-5.2559 3.8154z"/></g><g transform="translate(-167.43,37)"><path id="path86" d="m365.47 179.85c1.7637-2.5918 3.6719-6.8398 3.6719-13.318v-1.1523h11.914v14.471h2.9873v8.2783h-3.1308v-4.7871h-14.074v4.7871h-3.1318v-8.2783zm12.311 0v-10.979h-5.6152c-0.28808 5.2188-1.9805 9.25-3.0596 10.979z"/><path id="path88" d="m386.02 180.28c3.2031-0.43164 4.8945-2.124 5.2549-13.75l0.0361-1.1523h12.526v17.962h-3.2754v-14.47h-6.1553l-0.0361 0.86328c-0.39551 9.2871-2.5557 13.75-6.6592 13.75-0.43164 0-0.79199-0.0352-1.1162-0.14356z"/><path id="path90" d="m422.06 165.38v17.962h-3.2754v-5.5791h-3.1318l-3.8516 5.5791h-3.7432l4.2471-6.1553c-2.2314-0.93555-3.707-2.9873-3.707-5.6152 0-3.708 2.916-6.1914 6.623-6.1914zm-7.3789 3.4922c-1.7275 0-2.8076 1.1514-2.8076 2.7354 0 1.7275 1.1885 2.6631 2.8076 2.6631h4.1035v-5.3984z"/></g><g id="g4763" transform="translate(-3.0796)"><path id="path104" d="m286.09 196.8c-2.1963 1.8721-5.4356 2.0879-8.1709 2.8799-4.1758 1.1875-5.2197 3.7432-5.2197 6.5869 1.6201-2.6992 4.4639-3.2393 6.6592-3.2393 4.7871 0 8.3867 3.5635 8.3867 8.5664 0 5.1113-3.8867 9.1787-8.9268 9.1787-5.6152 0-9.5381-3.9951-9.5381-12.059 0-5.9746 1.7998-10.294 6.5869-11.986 2.8438-1.0078 6.335-1.2598 9.0703-2.8076zm-1.6201 15.118c0-3.2041-2.4834-5.3994-5.9033-5.3994-2.4111 0-5.0391 1.4756-5.9033 4.2119 0.1084 4.1035 2.7363 6.5508 5.9756 6.5508 3.3838 0 5.8311-2.0518 5.8311-5.3633z"/><path id="path106" d="m295.71 202.38v12.562l9.5742-12.562h3.2754v17.962h-3.2754v-12.562l-9.5742 12.562h-3.2764v-17.962z"/><path id="path108" d="m323.42 214.98c0-1.2959-1.1514-2.1602-3.3115-2.1602h-2.375v-3.4912h2.0518c1.8711 0 2.915-0.64746 2.915-2.0156 0-1.0801-1.1514-1.8721-2.9873-1.8721-1.6562 0-3.3838 0.54004-5.0039 2.0879l-0.86328-2.6279c1.2236-1.6914 3.3838-2.9512 6.1553-2.9512 3.5635 0 6.0469 1.9434 6.0469 5.0029 0 1.7637-0.792 3.2041-2.0879 3.8154 1.9082 0.75586 2.8799 2.2686 2.8799 4.5 0 3.3115-3.3477 5.5068-7.127 5.5068-2.8438 0-5.1113-1.1152-6.4795-3.0596l0.86426-2.6631c1.1875 1.4394 3.0957 2.2314 5.4356 2.2314 2.5195 0 3.8867-1.0439 3.8867-2.3037z"/><path id="path110" d="m334.87 202.38v6.9473h9.4307v-6.9473h3.2754v17.962h-3.2754v-7.5234h-9.4307v7.5234h-3.2764v-17.962z"/><path id="path112" d="m367.31 214.91 0.86426 2.5557c-0.75586 1.584-3.2031 3.3115-6.5869 3.3115-5.3633 0-9.3232-3.6348-9.3232-9.3945 0-5.0391 3.3838-9.4307 8.8193-9.4307 5.1836 0 8.3867 4.3193 8.3867 9.3945 0 0.43164-0.0361 0.79199-0.1084 1.2236h-13.75c0.32422 3.168 2.7002 4.7158 6.1553 4.7158 2.3037 0 4.5352-1.2236 5.543-2.376zm-1.3311-5.6514c-0.18066-2.1592-2.2676-3.8154-4.8955-3.8154s-4.9678 1.6201-5.2559 3.8154z"/><path id="path114" d="m388.91 217.64c-0.75586 1.583-3.2754 3.1309-6.6592 3.1309-4.8955 0-9.3232-3.8154-9.3232-9.4307 0-5.6152 4.4277-9.3945 9.3232-9.3945 3.2392 0 5.7949 1.4756 6.5146 3.0234l-0.86328 2.5918c-1.0078-1.1523-2.9883-2.124-5.04-2.124-3.9951 0-6.6592 2.3398-6.6592 5.9033s2.6641 5.9394 6.6592 5.9394c2.1963 0 4.1396-1.0439 5.1475-2.1953z"/><path id="path116" d="m393.3 205.08c1.331-1.8721 3.8154-3.1318 6.6943-3.1318 4.752 0 7.7031 2.6279 7.7031 7.0547v11.339h-3.167v-1.584c-0.90039 1.2236-3.168 2.0156-5.1475 2.0156-4.248 0-7.0557-2.1592-7.0557-5.8311 0-3.7432 3.168-5.831 7.1631-5.831 1.6562 0 3.8164 0.43164 4.9316 1.4756v-0.86426c0-2.9873-2.2314-4.2832-4.8232-4.2832-2.2676 0-4.2832 1.0078-5.3633 2.4844zm11.122 8.8906c-0.57617-1.0078-2.5557-1.5117-4.499-1.5117-2.7002 0-4.3193 0.86328-4.3193 2.4111 0 1.4404 1.5117 2.4121 4.3193 2.4121 1.9072 0 3.9228-0.79199 4.499-1.9434z"/></g><g transform="translate(-3.0796,-3.0796)"><g id="g4706" transform="translate(2.3037,-37)"><path id="path92" d="m195.69 202.38h3.6719l5.5078 13.211 5.4707-13.211h3.6357l-10.69 25.629h-3.6357l3.4551-8.3506z"/><path id="path94" d="m233.09 202.38h3.3838l2.8076 17.962h-3.2402l-1.9795-11.879-5.0029 11.879h-3.0244l-4.8955-11.95-1.9795 11.95h-3.3477l2.8076-17.962h3.3115l5.5801 13.211z"/><path id="path96" d="m247.5 202.38v6.9473h9.4306v-6.9473h3.2754v17.962h-3.2754v-7.5234h-9.4306v7.5234h-3.2764v-17.962z"/><path id="path98" d="m273.95 220.78c-4.8955 0-9.0713-3.9951-9.0713-9.3945s4.1758-9.4307 9.0713-9.4307 9.0703 4.0312 9.0703 9.4307c0 5.3994-4.1748 9.3945-9.0703 9.3945zm0-3.4912c3.3115 0 5.7949-2.3398 5.7949-5.8672s-2.4834-5.9756-5.7949-5.9756-5.7959 2.4482-5.7959 5.9394c0 3.5635 2.4844 5.9033 5.7959 5.9033z"/></g><path id="path112-7" d="m303.78 177.66 0.86426 2.5557c-0.75586 1.584-3.2031 3.3115-6.5869 3.3115-5.3633 0-9.3232-3.6348-9.3232-9.3945 0-5.0391 3.3838-9.4307 8.8193-9.4307 5.1836 0 8.3867 4.3193 8.3867 9.3945 0 0.43164-0.0361 0.79199-0.1084 1.2236h-13.75c0.32422 3.168 2.7002 4.7158 6.1553 4.7158 2.3037 0 4.5352-1.2236 5.543-2.376zm-1.3311-5.6514c-0.18066-2.1592-2.2676-3.8154-4.8955-3.8154s-4.9678 1.6201-5.2559 3.8154z"/></g></g></g><g id="g4567" fill="#64b197"><path id="path7-3" transform="translate(0,-2.7386)" d="m544.44 107.18c2.2998 4.3812 7.2285 8.2137 13.581 8.2137 8.6526 0 14.786-6.68 14.786-15.334 0-8.5425-6.1335-15.224-14.786-15.224-6.3527 0-11.281 3.8329-13.581 8.1054zm0-27.712c3.0668-3.9416 8.7622-8.1043 17.962-8.1043 15.115 0 25.739 12.705 25.739 28.696 0 16.101-10.624 28.806-25.739 28.806-9.1999 0-14.895-4.0528-17.962-8.1042v29.984h-15.444v-81.241h15.444z" stroke-width=".97404" style=""/><path id="path4619" d="m596.64 68.797v57.241l16.119 0.0522-7e-3 -33.434s0.91848-4.7232 9.5332-8.6071c6.2454-2.8157 12.178-0.799 12.178-0.799v-15.831s-7.8186-0.30694-13.023 2.626c-5.2046 2.9329-8.6876 8.3875-8.6876 8.3875v-9.636z"/><path id="path4625" d="m666.92 66.77c-16.349 0-29.602 13.253-29.602 29.602 0 16.349 13.253 29.602 29.602 29.602s29.602-13.253 29.602-29.602c0-16.349-13.253-29.602-29.602-29.602zm0 13.4c9.7979 0 15.741 5.9421 15.742 15.74 0 9.7986-5.9434 15.742-15.742 15.742s-15.742-5.9434-15.742-15.742c1e-3 -9.7979 5.9441-15.74 15.742-15.74z" fill-rule="evenodd" style="paint-order:markers stroke fill"/></g></svg>
