<?xml version="1.0" encoding="UTF-8" standalone="no"?>
<!-- Generator: Adobe Illustrator 25.0.1, SVG Export Plug-In . SVG Version: 6.00 Build 0)  -->

<svg
   xmlns:dc="http://purl.org/dc/elements/1.1/"
   xmlns:cc="http://creativecommons.org/ns#"
   xmlns:rdf="http://www.w3.org/1999/02/22-rdf-syntax-ns#"
   xmlns:svg="http://www.w3.org/2000/svg"
   xmlns="http://www.w3.org/2000/svg"
   xmlns:xlink="http://www.w3.org/1999/xlink"
   xmlns:sodipodi="http://sodipodi.sourceforge.net/DTD/sodipodi-0.dtd"
   xmlns:inkscape="http://www.inkscape.org/namespaces/inkscape"
   version="1.1"
   x="0px"
   y="0px"
   viewBox="0 0 700 280"
   xml:space="preserve"
   id="svg121"
   sodipodi:docname="logo.svg"
   width="700"
   height="280"
   inkscape:version="0.92.1 r15371"
   inkscape:dataloss="true"><metadata
     id="metadata127"><rdf:RDF><cc:Work
         rdf:about=""><dc:format>image/svg+xml</dc:format><dc:type
           rdf:resource="http://purl.org/dc/dcmitype/StillImage" /><dc:title></dc:title></cc:Work></rdf:RDF></metadata><defs
     id="defs125" /><sodipodi:namedview
     pagecolor="#ffffff"
     bordercolor="#666666"
     borderopacity="1"
     objecttolerance="10"
     gridtolerance="10"
     guidetolerance="10"
     inkscape:pageopacity="0"
     inkscape:pageshadow="2"
     inkscape:window-width="1366"
     inkscape:window-height="705"
     id="namedview123"
     showgrid="false"
     showguides="true"
     inkscape:guide-bbox="true"
     inkscape:zoom="2.9357929"
     inkscape:cx="471.21157"
     inkscape:cy="186.16347"
     inkscape:window-x="-8"
     inkscape:window-y="-8"
     inkscape:window-maximized="1"
     inkscape:current-layer="g4669"><sodipodi:guide
       position="418.96688,153.96181"
       orientation="0,1"
       id="guide4649"
       inkscape:locked="false" /><sodipodi:guide
       position="424.07623,213.2303"
       orientation="0,1"
       id="guide4651"
       inkscape:locked="false" /><sodipodi:guide
       position="539.28867,131.98973"
       orientation="0,1"
       id="guide4653"
       inkscape:locked="false" /><sodipodi:guide
       position="539.28865,160.84445"
       orientation="1,0"
       id="guide4655"
       inkscape:locked="false" /><sodipodi:guide
       position="526.99549,185.70088"
       orientation="1,0"
       id="guide4657"
       inkscape:locked="false" /><sodipodi:guide
       position="556.91939,188.02416"
       orientation="1,0"
       id="guide4661"
       inkscape:locked="false" /><sodipodi:guide
       position="603.07387,211.35687"
       orientation="0,1"
       id="guide4675"
       inkscape:locked="false" /><sodipodi:guide
       position="602.56293,183.25543"
       orientation="0,1"
       id="guide4682"
       inkscape:locked="false" /><sodipodi:guide
       position="362.764,70.168437"
       orientation="0,1"
       id="guide4765"
       inkscape:locked="false" /><sodipodi:guide
       position="376.38894,62.334097"
       orientation="0,1"
       id="guide4769"
       inkscape:locked="false" /><sodipodi:guide
       position="194.83663,143.74311"
       orientation="1,0"
       id="guide4810"
       inkscape:locked="false" /><sodipodi:guide
       position="323.5923,90.605845"
       orientation="0,1"
       id="guide4820"
       inkscape:locked="false" /><sodipodi:guide
       position="384.29801,37.868069"
       orientation="0,1"
       id="guide4822"
       inkscape:locked="false" /></sodipodi:namedview><style
     type="text/css"
     id="style2">
	.st0{display:none;}
	.st1{display:inline;fill:#5B5B5B;}
	.st2{fill:#FFFFFF;}
	.st3{clip-path:url(#SVGID_2_);fill:url(#SVGID_3_);}
	.st4{clip-path:url(#SVGID_5_);fill:url(#SVGID_6_);}
	.st5{clip-path:url(#SVGID_8_);fill:url(#SVGID_9_);}
</style><g
     id="Слой_3"
     class="st0"
     style="display:none"
     transform="translate(0,49.467789)"><rect
       class="st1"
       width="516.38519"
       height="230.53221"
       id="rect4"
       x="0"
       y="0"
       style="display:inline;fill:#5b5b5b" /></g><g
     id="Слой_1"
     transform="translate(0,-2.738644)"><path
       class="st2"
       d="m 516.38519,84.989151 v 0 -13.829697 h -15.9685 V 55.309235 h -2.51932 l -27.16049,27.159194 v 2.520722 h 13.82589 v 24.852339 c 0,11.69341 5.62244,18.89047 18.32856,18.89047 4.72244,0 10.34457,-1.12466 13.38076,-3.03619 v -13.15526 c -2.4732,1.23602 -5.17205,2.02314 -8.20825,2.02314 -5.28531,0 -7.64715,-2.2487 -7.64715,-7.87115 V 84.989151 Z m -72.19082,-4.383949 v 0 -9.445748 h -15.85529 v 56.110676 h 15.85529 V 94.547699 c 2.02472,-4.497765 8.09591,-9.781883 16.41742,-9.781883 1.68701,0 3.37338,0.11161 4.94775,0.561554 V 69.809219 c -0.67447,-0.11161 -1.23749,-0.11161 -1.79874,-0.11161 -8.77148,0 -16.53021,5.396889 -19.56643,10.907593 z m -44.98328,25.862918 v 0 c -2.36105,4.49804 -7.42117,8.43268 -13.94315,8.43268 -8.88339,0 -15.18035,-6.85804 -15.18035,-15.742269 0,-8.770263 6.29696,-15.629898 15.18035,-15.629898 6.52198,0 11.5821,3.935043 13.94315,8.32148 z m 0,-28.450214 v 0 c -3.14859,-4.046638 -8.99582,-8.320297 -18.44089,-8.320297 -15.51794,0 -26.42517,13.043907 -26.42517,29.460922 0,16.529789 10.90723,29.573429 26.42517,29.573429 9.44507,0 15.2923,-4.16086 18.44089,-8.32029 v 6.85846 h 15.85535 V 71.159454 h -15.85535 z m -74.44354,-8.320297 v 0 c -8.54563,0 -15.74228,4.385246 -19.34015,9.557358 -2.24976,-4.834938 -8.5463,-9.557358 -17.42929,-9.557358 -7.87155,0 -13.71878,3.823692 -17.09213,8.320297 v -6.858452 h -15.85547 v 56.110676 h 15.85547 V 91.62429 c 2.13589,-4.047836 6.97189,-7.421195 11.80682,-7.421195 3.93573,0 9.33298,1.687408 9.33298,11.582069 v 31.484966 h 15.8547 V 91.850113 c 2.02469,-4.160874 6.74686,-7.647019 11.69483,-7.647019 3.93585,0 9.3331,1.574616 9.3331,11.58207 v 31.484966 h 15.8547 V 92.187027 c 0,-15.18074 -8.43286,-22.489418 -20.01556,-22.489418 z m -98.39571,23.72686 c -7.08403,-1.687408 -13.94278,-2.361855 -13.94278,-6.409554 0,-2.699043 2.81026,-4.497779 8.99506,-4.497779 7.64635,0 15.29234,2.923408 20.3531,5.846435 V 74.86998 c -5.06076,-3.148972 -13.38145,-5.172371 -21.02745,-5.172371 -15.51749,0 -24.73848,6.522743 -24.73848,17.204514 0,10.457389 6.29678,14.280707 18.2164,17.428517 8.20871,2.24909 14.39322,2.8118 14.39322,6.74685 0,3.0362 -3.48613,4.7236 -9.67027,4.7236 -10.12088,0 -18.89168,-3.71052 -22.93935,-6.40955 v 14.05515 c 5.06009,3.14897 14.05592,5.28527 23.61369,5.28527 15.29271,0 25.07578,-7.19706 25.07578,-17.54168 0,-10.23301 -6.85886,-15.067943 -18.32892,-17.765811 z"
       id="path7"
       style="fill:#4b2e87;fill-opacity:1"
       inkscape:connector-curvature="0" /><g
       id="g26"><defs
         id="defs10"><path
           id="SVGID_1_"
           d="M 10.955789,79.375633 C 0,90.331696 0,108.09526 10.955789,119.05251 c 10.958674,10.95643 28.721462,10.95643 39.678302,0 L 119.05435,50.632889 c 10.95684,-10.957222 10.95684,-28.72081 -0.001,-39.678314 C 108.09684,0 90.333275,0 79.377098,10.954577 Z"
           inkscape:connector-curvature="0" /></defs><clipPath
         id="SVGID_2_"><use
           xlink:href="#SVGID_1_"
           style="overflow:visible"
           id="use12"
           x="0"
           y="0"
           width="100%"
           height="100%" /></clipPath><linearGradient
         id="SVGID_3_"
         gradientUnits="userSpaceOnUse"
         x1="10.955693"
         y1="119.05437"
         x2="119.05096"
         y2="10.959096"><stop
           offset="0"
           style="stop-color:#1B69AA"
           id="stop15" /><stop
           offset="0.2076255"
           style="stop-color:#2A7EB9"
           id="stop17" /><stop
           offset="0.7382894"
           style="stop-color:#4EB1DC"
           id="stop19" /><stop
           offset="1"
           style="stop-color:#5CC4E9"
           id="stop21" /></linearGradient><rect
         class="st3"
         width="130.01118"
         height="130.00894"
         clip-path="url(#SVGID_2_)"
         id="rect24"
         x="0"
         y="0"
         style="fill:url(#SVGID_3_)" /></g><g
       id="g47"><defs
         id="defs29"><path
           id="SVGID_4_"
           d="m 39.296883,147.79668 c -10.956179,10.95605 -10.956179,28.71923 0,39.67567 10.958282,10.9587 28.721473,10.9587 39.67791,0.001 l 68.421437,-68.42103 c 10.95539,-10.9562 10.95539,-28.719373 -0.003,-39.676877 -10.95604,-10.954994 -28.71882,-10.954994 -39.67566,0 z"
           inkscape:connector-curvature="0" /></defs><clipPath
         id="SVGID_5_"><use
           xlink:href="#SVGID_4_"
           style="overflow:visible"
           id="use31"
           x="0"
           y="0"
           width="100%"
           height="100%" /></clipPath><linearGradient
         id="SVGID_6_"
         gradientUnits="userSpaceOnUse"
         x1="39.301029"
         y1="187.47098"
         x2="147.39632"
         y2="79.375694"><stop
           offset="0"
           style="stop-color:#4B2E87"
           id="stop34" /><stop
           offset="0.05"
           style="stop-color:#4B2E87"
           id="stop36" /><stop
           offset="0.13"
           style="stop-color:#4B2E87"
           id="stop38" /><stop
           offset="0.85"
           style="stop-color:#6DBC8E"
           id="stop40" /><stop
           offset="1"
           style="stop-color:#6DBC8E"
           id="stop42" /></linearGradient><rect
         x="28.340704"
         y="68.420639"
         class="st4"
         width="130.01093"
         height="130.01041"
         clip-path="url(#SVGID_5_)"
         id="rect45"
         style="fill:url(#SVGID_6_)" /></g><g
       id="g70"><defs
         id="defs50"><path
           id="SVGID_7_"
           d="m 30.794083,71.158005 c -15.495054,0 -28.0552677,12.561653 -28.0552677,28.056724 0,15.495171 12.5602147,28.055401 28.0552677,28.055401 h 96.761487 c 15.4952,0 28.05529,-12.56023 28.05529,-28.055401 0,-15.495071 -12.56009,-28.055275 -28.05529,-28.056724 z"
           inkscape:connector-curvature="0" /></defs><clipPath
         id="SVGID_8_"><use
           xlink:href="#SVGID_7_"
           style="overflow:visible"
           id="use52"
           x="0"
           y="0"
           width="100%"
           height="100%" /></clipPath><linearGradient
         id="SVGID_9_"
         gradientUnits="userSpaceOnUse"
         x1="2.7388144"
         y1="99.214066"
         x2="155.61086"
         y2="99.214066"><stop
           offset="0"
           style="stop-color:#0D87C9"
           id="stop55" /><stop
           offset="0.1831508"
           style="stop-color:#2D99B5"
           id="stop57" /><stop
           offset="0.3868005"
           style="stop-color:#49A8A4"
           id="stop59" /><stop
           offset="0.5914975"
           style="stop-color:#5DB398"
           id="stop61" /><stop
           offset="0.795936"
           style="stop-color:#69BA90"
           id="stop63" /><stop
           offset="1"
           style="stop-color:#6DBC8E"
           id="stop65" /></linearGradient><rect
         x="2.7388144"
         y="71.158005"
         class="st5"
         width="152.87204"
         height="56.112118"
         clip-path="url(#SVGID_8_)"
         id="rect68"
         style="fill:url(#SVGID_9_)" /></g><g
       id="g118"
       style="fill:#000000;fill-opacity:0.92156863"><g
         id="g4808"
         transform="matrix(1.2988637,0,0,1.2988637,-59.160539,-17.995825)"><g
           transform="translate(115.84076,-3.0796148)"
           id="g4715"><path
             class="st2"
             d="m 206.70659,183.77538 c -2.73535,0 -4.85938,-1.04395 -5.43457,-2.375 v 9.61035 h -3.27637 v -25.62891 h 3.16797 v 1.9082 c 0.57617,-1.33203 2.73535,-2.33984 5.47168,-2.33984 5.00293,0 9.28613,3.85156 9.28613,9.43066 0,5.54297 -4.31933,9.39454 -9.21484,9.39454 z m -0.10742,-15.33399 c -2.4834,0 -4.71582,1.25977 -5.32715,2.98828 v 5.86719 c 0.61133,1.72754 2.84375,2.9873 5.32715,2.9873 3.63574,0 6.04687,-2.33984 6.04687,-5.97558 0,-3.56348 -2.41113,-5.86719 -6.04687,-5.86719 z"
             id="path72"
             style="fill:#000000;fill-opacity:0.92156863"
             inkscape:connector-curvature="0" /><path
             class="st2"
             d="m 234.42534,177.90819 0.86426,2.55566 c -0.75586,1.58399 -3.20313,3.31153 -6.58692,3.31153 -5.36328,0 -9.32324,-3.63477 -9.32324,-9.39454 0,-5.03906 3.38379,-9.43066 8.81934,-9.43066 5.18359,0 8.38671,4.31934 8.38671,9.39453 0,0.43164 -0.0361,0.79199 -0.10839,1.22363 h -13.75 c 0.32422,3.16797 2.70019,4.71582 6.15527,4.71582 2.30371,0 4.53516,-1.22363 5.54297,-2.37597 z m -1.33106,-5.65137 c -0.18066,-2.15918 -2.26757,-3.81543 -4.8955,-3.81543 -2.62793,0 -4.96778,1.62012 -5.25586,3.81543 z"
             id="path74"
             style="fill:#000000;fill-opacity:0.92156863"
             inkscape:connector-curvature="0" /><path
             class="st2"
             d="m 241.26714,183.34373 v -17.96191 h 3.27636 v 14.4707 h 6.80274 v -14.4707 h 3.27539 v 14.4707 h 6.80369 v -14.4707 h 3.27539 v 17.96191 z"
             id="path76"
             style="fill:#000000;fill-opacity:0.92156863"
             inkscape:connector-curvature="0" /><path
             class="st2"
             d="m 284.42923,177.90819 0.86426,2.55566 c -0.75586,1.58399 -3.20313,3.31153 -6.58692,3.31153 -5.36328,0 -9.32324,-3.63477 -9.32324,-9.39454 0,-5.03906 3.38379,-9.43066 8.81934,-9.43066 5.18359,0 8.38672,4.31934 8.38672,9.39453 0,0.43164 -0.0361,0.79199 -0.1084,1.22363 h -13.75 c 0.32422,3.16797 2.70019,4.71582 6.15527,4.71582 2.30371,0 4.53516,-1.22363 5.54297,-2.37597 z m -1.33105,-5.65137 c -0.18067,-2.15918 -2.26758,-3.81543 -4.89551,-3.81543 -2.62793,0 -4.96778,1.62012 -5.25586,3.81543 z"
             id="path78"
             style="fill:#000000;fill-opacity:0.92156863"
             inkscape:connector-curvature="0" /><path
             class="st2"
             d="m 294.54642,165.38182 v 6.94727 h 9.43066 v -6.94727 h 3.27539 v 17.96191 h -3.27539 v -7.52343 h -9.43066 v 7.52343 h -3.27637 v -17.96191 z"
             id="path80"
             style="fill:#000000;fill-opacity:0.92156863"
             inkscape:connector-curvature="0" /><path
             class="st2"
             d="m 316.43411,165.38182 v 12.5625 l 9.57422,-12.5625 h 3.27539 v 17.96191 h -3.27539 v -12.5625 l -9.57422,12.5625 h -3.27636 v -17.96191 z"
             id="path82"
             style="fill:#000000;fill-opacity:0.92156863"
             inkscape:connector-curvature="0" /><path
             class="st2"
             d="m 349.01224,177.90819 0.86426,2.55566 c -0.75586,1.58399 -3.20313,3.31153 -6.58692,3.31153 -5.36328,0 -9.32324,-3.63477 -9.32324,-9.39454 0,-5.03906 3.38379,-9.43066 8.81933,-9.43066 5.1836,0 8.38672,4.31934 8.38672,9.39453 0,0.43164 -0.0361,0.79199 -0.10839,1.22363 h -13.75 c 0.32421,3.16797 2.70019,4.71582 6.15527,4.71582 2.30371,0 4.53516,-1.22363 5.54297,-2.37597 z m -1.33106,-5.65137 c -0.18066,-2.15918 -2.26758,-3.81543 -4.8955,-3.81543 -2.62793,0 -4.96778,1.62012 -5.25586,3.81543 z"
             id="path84"
             style="fill:#000000;fill-opacity:0.92156863"
             inkscape:connector-curvature="0" /></g><g
           transform="translate(-167.43361,37)"
           id="g4689"><path
             class="st2"
             d="m 365.46536,179.85252 c 1.76367,-2.59179 3.67188,-6.83984 3.67188,-13.31836 v -1.15234 h 11.91406 v 14.4707 h 2.9873 v 8.27832 h -3.13085 v -4.78711 h -14.07422 v 4.78711 h -3.13184 v -8.27832 z m 12.31055,0 v -10.97851 h -5.61524 c -0.28808,5.21875 -1.98046,9.25 -3.05957,10.97851 z"
             id="path86"
             style="fill:#000000;fill-opacity:0.92156863"
             inkscape:connector-curvature="0" /><path
             class="st2"
             d="m 386.022,180.28416 c 3.20313,-0.43164 4.89453,-2.12402 5.25489,-13.75 l 0.0361,-1.15234 h 12.52637 v 17.96191 H 400.564 v -14.46972 h -6.15528 l -0.0361,0.86328 c -0.39551,9.28711 -2.55566,13.75 -6.65918,13.75 -0.43164,0 -0.79199,-0.0352 -1.11621,-0.14356 z"
             id="path88"
             style="fill:#000000;fill-opacity:0.92156863"
             inkscape:connector-curvature="0" /><path
             class="st2"
             d="m 422.05521,165.38182 v 17.96191 h -3.27539 v -5.5791 h -3.13184 l -3.85156,5.5791 h -3.74317 l 4.24707,-6.15527 c -2.23144,-0.93555 -3.70703,-2.9873 -3.70703,-5.61523 0,-3.70801 2.91602,-6.19141 6.62305,-6.19141 z m -7.37891,3.49219 c -1.72754,0 -2.80762,1.15137 -2.80762,2.73535 0,1.72754 1.18848,2.66309 2.80762,2.66309 h 4.10352 v -5.39844 z"
             id="path90"
             style="fill:#000000;fill-opacity:0.92156863"
             inkscape:connector-curvature="0" /></g><g
           id="g4763"
           transform="translate(-3.0796148)"><path
             class="st2"
             d="m 286.09232,196.80272 c -2.19629,1.87207 -5.43555,2.08789 -8.1709,2.87988 -4.17578,1.1875 -5.21973,3.74317 -5.21973,6.58692 1.62012,-2.69922 4.46387,-3.23926 6.65918,-3.23926 4.78711,0 8.38672,3.56347 8.38672,8.5664 0,5.11133 -3.88672,9.17872 -8.92676,9.17872 -5.61523,0 -9.53808,-3.99512 -9.53808,-12.0586 0,-5.97461 1.7998,-10.29394 6.58691,-11.98633 2.84375,-1.00781 6.33496,-1.25976 9.07031,-2.80761 z m -1.62012,15.11816 c 0,-3.2041 -2.4834,-5.39941 -5.90332,-5.39941 -2.41113,0 -5.03906,1.47558 -5.90332,4.21191 0.1084,4.10352 2.73633,6.55078 5.97558,6.55078 3.38379,0 5.83106,-2.05175 5.83106,-5.36328 z"
             id="path104"
             style="fill:#000000;fill-opacity:0.92156863"
             inkscape:connector-curvature="0" /><path
             class="st2"
             d="m 295.7056,202.38182 v 12.5625 l 9.57422,-12.5625 h 3.27539 v 17.96191 h -3.27539 v -12.5625 l -9.57422,12.5625 h -3.27637 v -17.96191 z"
             id="path106"
             style="fill:#000000;fill-opacity:0.92156863"
             inkscape:connector-curvature="0" /><path
             class="st2"
             d="m 323.42435,214.98045 c 0,-1.29589 -1.15137,-2.16015 -3.31153,-2.16015 h -2.375 v -3.49121 h 2.05176 c 1.8711,0 2.91504,-0.64746 2.91504,-2.01563 0,-1.08008 -1.15137,-1.87207 -2.9873,-1.87207 -1.65625,0 -3.38379,0.54004 -5.00391,2.08789 l -0.86328,-2.62793 c 1.22363,-1.6914 3.38379,-2.95117 6.15527,-2.95117 3.56348,0 6.04688,1.94336 6.04688,5.00293 0,1.76367 -0.792,3.2041 -2.08789,3.81543 1.9082,0.75586 2.87988,2.26855 2.87988,4.5 0,3.31152 -3.34766,5.50684 -7.12695,5.50684 -2.84375,0 -5.11133,-1.11524 -6.4795,-3.05957 l 0.86426,-2.66309 c 1.1875,1.43945 3.0957,2.23144 5.43555,2.23144 2.51953,0 3.88672,-1.04394 3.88672,-2.30371 z"
             id="path108"
             style="fill:#000000;fill-opacity:0.92156863"
             inkscape:connector-curvature="0" /><path
             class="st2"
             d="m 334.87357,202.38182 v 6.94727 h 9.43066 v -6.94727 h 3.27539 v 17.96191 h -3.27539 v -7.52343 h -9.43066 v 7.52343 h -3.27637 v -17.96191 z"
             id="path110"
             style="fill:#000000;fill-opacity:0.92156863"
             inkscape:connector-curvature="0" /><path
             class="st2"
             d="m 367.30716,214.90819 0.86426,2.55566 c -0.75586,1.58399 -3.20313,3.31153 -6.58692,3.31153 -5.36328,0 -9.32324,-3.63477 -9.32324,-9.39454 0,-5.03906 3.38379,-9.43066 8.81934,-9.43066 5.18359,0 8.38672,4.31934 8.38672,9.39453 0,0.43164 -0.0361,0.79199 -0.1084,1.22363 h -13.75 c 0.32422,3.16797 2.70019,4.71582 6.15527,4.71582 2.30371,0 4.53516,-1.22363 5.54297,-2.37597 z m -1.33106,-5.65137 c -0.18066,-2.15918 -2.26757,-3.81543 -4.8955,-3.81543 -2.62793,0 -4.96778,1.62012 -5.25586,3.81543 z"
             id="path112"
             style="fill:#000000;fill-opacity:0.92156863"
             inkscape:connector-curvature="0" /><path
             class="st2"
             d="m 388.90775,217.64452 c -0.75586,1.583 -3.2754,3.13086 -6.65918,3.13086 -4.89551,0 -9.32325,-3.81543 -9.32325,-9.43067 0,-5.61523 4.42774,-9.39453 9.32325,-9.39453 3.23925,0 5.79492,1.47559 6.51464,3.02344 l -0.86328,2.59179 c -1.00781,-1.15234 -2.98828,-2.12402 -5.04004,-2.12402 -3.99511,0 -6.65918,2.33984 -6.65918,5.90332 0,3.56348 2.66407,5.93945 6.65918,5.93945 2.19629,0 4.13965,-1.04394 5.14746,-2.19531 z"
             id="path114"
             style="fill:#000000;fill-opacity:0.92156863"
             inkscape:connector-curvature="0" /><path
             class="st2"
             d="m 393.3013,205.08202 c 1.33105,-1.87207 3.81543,-3.13184 6.69434,-3.13184 4.75195,0 7.70312,2.62793 7.70312,7.05469 v 11.33886 h -3.16699 v -1.58398 c -0.90039,1.22363 -3.16797,2.01563 -5.14746,2.01563 -4.24805,0 -7.05567,-2.15918 -7.05567,-5.83106 0,-3.74316 3.16797,-5.83105 7.16309,-5.83105 1.65625,0 3.81641,0.43164 4.93164,1.47558 v -0.86426 c 0,-2.9873 -2.23145,-4.2832 -4.82324,-4.2832 -2.26758,0 -4.28321,1.00781 -5.36328,2.48438 z m 11.12207,8.89062 c -0.57617,-1.00781 -2.55566,-1.51172 -4.49902,-1.51172 -2.7002,0 -4.31934,0.86328 -4.31934,2.41113 0,1.44043 1.51172,2.41211 4.31934,2.41211 1.90722,0 3.92285,-0.79199 4.49902,-1.94336 z"
             id="path116"
             style="fill:#000000;fill-opacity:0.92156863"
             inkscape:connector-curvature="0" /></g><g
           id="g4818"
           transform="translate(-3.0796148,-3.0796148)"><g
             id="g4706"
             transform="translate(2.30371,-37)"><path
               inkscape:connector-curvature="0"
               style="fill:#000000;fill-opacity:0.92156863"
               id="path92"
               d="m 195.69194,202.38182 h 3.67188 l 5.50781,13.21094 5.4707,-13.21094 h 3.63574 l -10.69043,25.62891 h -3.63574 l 3.45508,-8.35059 z"
               class="st2" /><path
               inkscape:connector-curvature="0"
               style="fill:#000000;fill-opacity:0.92156863"
               id="path94"
               d="m 233.09428,202.38182 h 3.38379 l 2.80762,17.96191 h -3.24023 l -1.9795,-11.8789 -5.00293,11.8789 h -3.02441 l -4.89551,-11.95019 -1.97949,11.95019 h -3.34766 l 2.80762,-17.96191 h 3.31152 l 5.58008,13.21094 z"
               class="st2" /><path
               inkscape:connector-curvature="0"
               style="fill:#000000;fill-opacity:0.92156863"
               id="path96"
               d="m 247.49565,202.38182 v 6.94727 h 9.43065 v -6.94727 h 3.27539 v 17.96191 h -3.27539 v -7.52343 h -9.43065 v 7.52343 h -3.27637 v -17.96191 z"
               class="st2" /><path
               inkscape:connector-curvature="0"
               style="fill:#000000;fill-opacity:0.92156863"
               id="path98"
               d="m 273.95462,220.77538 c -4.89551,0 -9.07129,-3.99512 -9.07129,-9.39454 0,-5.39941 4.17578,-9.43066 9.07129,-9.43066 4.89551,0 9.07031,4.03125 9.07031,9.43066 0,5.39942 -4.1748,9.39454 -9.07031,9.39454 z m 0,-3.49122 c 3.31152,0 5.79492,-2.33984 5.79492,-5.86718 0,-3.52735 -2.4834,-5.97559 -5.79492,-5.97559 -3.31152,0 -5.7959,2.44824 -5.7959,5.93945 0,3.56348 2.48438,5.90332 5.7959,5.90332 z"
               class="st2" /></g><path
             class="st2"
             d="m 303.78104,177.65619 0.86426,2.55566 c -0.75586,1.58399 -3.20313,3.31153 -6.58692,3.31153 -5.36328,0 -9.32324,-3.63477 -9.32324,-9.39454 0,-5.03906 3.38379,-9.43066 8.81934,-9.43066 5.18359,0 8.38672,4.31934 8.38672,9.39453 0,0.43164 -0.0361,0.79199 -0.1084,1.22363 h -13.75 c 0.32422,3.16797 2.70019,4.71582 6.15527,4.71582 2.30371,0 4.53516,-1.22363 5.54297,-2.37597 z m -1.33106,-5.65137 c -0.18066,-2.15918 -2.26757,-3.81543 -4.8955,-3.81543 -2.62793,0 -4.96778,1.62012 -5.25586,3.81543 z"
             id="path112-7"
             style="fill:#000000;fill-opacity:0.92156863"
             inkscape:connector-curvature="0" /></g></g></g></g><g
     id="g4644"><g
       id="g4669"><path
         sodipodi:nodetypes="ccccscczccc"
         inkscape:connector-curvature="0"
         id="path4619"
         d="m 596.64244,68.797084 v 57.241106 l 16.11861,0.0522 -0.007,-33.433903 c 0,0 0.91848,-4.723212 9.53319,-8.607088 6.24539,-2.815692 12.17762,-0.798997 12.17762,-0.798997 V 67.419647 c 0,0 -7.81862,-0.306937 -13.02325,2.625962 -5.20464,2.932901 -8.68756,8.38752 -8.68756,8.38752 v -9.636045 z"
         style="fill:#64b197;fill-opacity:1;stroke:none;stroke-width:0.96391279px;stroke-linecap:butt;stroke-linejoin:miter;stroke-opacity:1" /><path
         inkscape:connector-curvature="0"
         id="path4625"
         d="M 666.92038,66.7697 A 29.601822,29.601822 0 0 0 637.31836,96.371719 29.601822,29.601822 0 0 0 666.92038,125.97374 29.601822,29.601822 0 0 0 696.5224,96.371719 29.601822,29.601822 0 0 0 666.92038,66.7697 Z m 0,11.862017 a 17.741561,17.741561 0 0 1 17.74189,17.740002 17.741561,17.741561 0 0 1 -17.74189,17.741891 17.741561,17.741561 0 0 1 -17.7419,-17.741891 17.741561,17.741561 0 0 1 17.7419,-17.740002 z"
         style="opacity:1;fill:#64b197;fill-opacity:1;fill-rule:evenodd;stroke:none;stroke-width:0.49770328;stroke-linecap:square;stroke-linejoin:round;stroke-miterlimit:4;stroke-dasharray:none;stroke-opacity:1;paint-order:markers stroke fill" /><path
         class="st2"
         d="m 544.43911,104.44472 v 0 c 2.2998,4.38125 7.22851,8.21373 13.58117,8.21373 8.65265,0 14.78615,-6.67998 14.78615,-15.333534 0,-8.542542 -6.1335,-15.224073 -14.78615,-15.224073 -6.35266,0 -11.28137,3.832877 -13.58117,8.105415 z m 0,-27.711514 v 0 c 3.06685,-3.94157 8.76223,-8.104266 17.96209,-8.104266 15.11498,0 25.73908,12.70523 25.73908,28.695976 0,16.100604 -10.6241,28.805564 -25.73908,28.805564 -9.19986,0 -14.89524,-4.05282 -17.96209,-8.10425 v 29.98404 H 528.99549 V 66.7697 h 15.44362 z"
         id="path7-3"
         style="fill:#64b197;fill-opacity:1;stroke-width:0.97403538"
         inkscape:connector-curvature="0"
         sodipodi:nodetypes="ccsssccccssscccccc" /></g></g></svg>