<?xml version="1.0" encoding="UTF-8"?>
<svg id="svg17" width="24" height="24" fill="none" version="1.1" viewBox="0 0 24 24" xmlns="http://www.w3.org/2000/svg" xmlns:cc="http://creativecommons.org/ns#" xmlns:dc="http://purl.org/dc/elements/1.1/" xmlns:rdf="http://www.w3.org/1999/02/22-rdf-syntax-ns#">
 <metadata id="metadata21">
  <rdf:RDF>
   <cc:Work rdf:about="">
    <dc:format>image/svg+xml</dc:format>
    <dc:type rdf:resource="http://purl.org/dc/dcmitype/StillImage"/>
    <dc:title/>
   </cc:Work>
  </rdf:RDF>
 </metadata>
 <g id="g10" transform="rotate(180 12 12)" clip-path="url(#clip0)" fill="#1c1c1c">
  <path id="path2" d="m16.494 18.38h-3.7464c-0.4139 0-0.7493-0.3355-0.7493-0.7493s0.3354-0.7493 0.7493-0.7493h3.7464c0.4131 0 0.7493-0.3361 0.7493-0.7493v-8.2421c0-0.41314-0.3362-0.74929-0.7493-0.74929h-8.2421c-0.41314 0-0.74929 0.33615-0.74929 0.74929v3.7464c0 0.4138-0.33544 0.7493-0.74928 0.7493s-0.74928-0.3355-0.74928-0.7493v-3.7464c0-1.2395 1.0083-2.2478 2.2478-2.2478h8.2421c1.2395 0 2.2478 1.0084 2.2478 2.2478v8.2421c0 1.2395-1.0084 2.2479-2.2478 2.2479z"/>
  <path id="path4" d="m19.962 4.826c-0.2815 0-0.438-0.13113-0.5912-0.28056-0.2963-0.2889-0.3022-0.76329-0.0133-1.0595 0.2889-0.29629 0.7633-0.30224 1.0595-0.01334 0.0266 0.02594 0.0527 0.05189 0.0788 0.07835 0.4678 0.4749 0.1251 1.2751-0.5338 1.2751z"/>
  <path id="path6" d="m11.999 24c-6.613 2e-4 -11.97-5.3435-11.988-11.957-0.02482-9.3712 10.311-15.216 18.331-10.207 0.351 0.21921 0.4578 0.68142 0.2387 1.0324-0.2193 0.35094-0.6814 0.45781-1.0325 0.2386-6.9854-4.3627-16.06 0.6987-16.038 8.9321 0.01526 5.7746 4.7184 10.462 10.489 10.462 4.03 0 7.7567-2.3556 9.4851-6.0029 1.5107-3.1857 1.3338-7.0286-0.6281-10.111-0.2222-0.34912-0.1193-0.81223 0.2298-1.0344 0.3491-0.22225 0.8122-0.11927 1.0344 0.2298 2.2435 3.5251 2.4455 7.9148 0.718 11.558-1.9466 4.1078-6.1085 6.8596-10.84 6.8596z"/>
  <path id="path8" d="m13.494 11.938c-0.0218-0.2232-0.1459-0.4395-0.362-0.5687-0.2381-0.1422-0.1878-0.1065-2.5029-0.1065-0.4138 0-0.74927 0.3355-0.74927 0.7493 0 0.4137 0.33547 0.7492 0.74927 0.7492h0.3104l-3.9659 3.9659c-0.29264 0.2926-0.29264 0.7671 0 1.0597 0.29255 0.2926 0.76703 0.2926 1.0596 0l3.9659-3.9659v0.3104c0 0.4137 0.3355 0.7492 0.7493 0.7492 0.4139 0 0.7493-0.3355 0.7493-0.7492 0-2.3093 0.0016-2.1391-0.0037-2.1934z"/>
 </g>
 <defs id="defs15">
  <clipPath id="clip0">
   <rect id="rect12" width="24" height="24" fill="white"/>
  </clipPath>
 </defs>
</svg>
