<svg width="24" height="24" viewBox="0 0 24 24" fill="none" xmlns="http://www.w3.org/2000/svg">
<path d="M16.6816 0H4.60237C3.79131 0 3.13086 0.660912 3.13086 1.47182V22.5279C3.13086 23.3401 3.79131 23.9999 4.60237 23.9999H19.3984C20.2101 23.9999 20.87 23.3401 20.87 22.5279V4.55096L16.6816 0ZM17.0289 2.20239L18.8647 4.19758H17.0289V2.20239ZM19.6341 22.528C19.6341 22.6576 19.5279 22.7641 19.3977 22.7641H4.60237C4.47232 22.7641 4.3668 22.6576 4.3668 22.528V1.47182C4.3668 1.34187 4.47232 1.23655 4.60237 1.23655H15.7924V4.8158C15.7924 5.15658 16.07 5.43285 16.411 5.43285H19.6341V22.528ZM6.54701 6.57342H17.0421C17.2978 6.57342 17.5052 6.78079 17.5052 7.03645C17.5052 7.29212 17.2978 7.49948 17.0421 7.49948H6.54701C6.2914 7.49948 6.08398 7.29212 6.08398 7.03645C6.08398 6.78084 6.2914 6.57342 6.54701 6.57342ZM17.5052 10.148C17.5052 10.4036 17.2978 10.6111 17.0421 10.6111H6.54701C6.2914 10.6111 6.08398 10.4037 6.08398 10.148C6.08398 9.89236 6.2914 9.685 6.54701 9.685H17.0421C17.2978 9.685 17.5052 9.89241 17.5052 10.148ZM17.5052 13.1577C17.5052 13.4134 17.2978 13.6207 17.0421 13.6207H6.54701C6.2914 13.6207 6.08398 13.4134 6.08398 13.1577C6.08398 12.902 6.2914 12.6947 6.54701 12.6947H17.0421C17.2978 12.6947 17.5052 12.902 17.5052 13.1577ZM17.5052 16.2186C17.5052 16.4743 17.2978 16.6817 17.0421 16.6817H6.54701C6.2914 16.6817 6.08398 16.4743 6.08398 16.2186C6.08398 15.963 6.2914 15.7556 6.54701 15.7556H17.0421C17.2978 15.7556 17.5052 15.963 17.5052 16.2186Z" fill="#1c1c1c"/>
</svg>
