<svg width="24" height="24" viewBox="0 0 24 24" fill="none" xmlns="http://www.w3.org/2000/svg">
<g clip-path="url(#clip0)">
<path d="M23.8475 20.4376L21.5075 15.7819C21.4581 15.6836 21.3655 15.6141 21.2573 15.594C21.1492 15.574 21.0378 15.6058 20.9565 15.6799C20.7913 15.8305 20.5762 15.9135 20.3511 15.9135C19.8535 15.9135 19.4487 15.5085 19.4487 15.0107C19.4487 14.5805 19.7546 14.2082 20.1762 14.1251C20.284 14.1039 20.3757 14.0335 20.424 13.9348C20.4723 13.8362 20.4717 13.7206 20.4224 13.6224L19.8331 12.4494C19.5504 11.8872 18.9837 11.5379 18.3544 11.5379C18.3544 11.5379 18.3543 11.5379 18.3543 11.5379C18.2934 11.5379 18.2335 11.5421 18.174 11.5485C18.1586 10.68 18.1362 9.81044 18.1066 8.95726C18.0768 8.09527 17.8233 7.25333 17.3735 6.52245C17.2718 6.35707 17.0552 6.30551 16.8899 6.40732C16.7245 6.50909 16.673 6.72566 16.7747 6.89099C17.1607 7.51823 17.3783 8.24114 17.4038 8.98164C17.436 9.90569 17.4597 10.8491 17.475 11.7894C17.224 11.9467 17.0152 12.1718 16.8757 12.449L15.1557 15.8714C14.4899 14.8365 13.5576 14.0338 12.4699 14.0338C10.5728 14.0338 9.14808 16.4755 8.78629 18.3321H8.76356C8.57802 17.3801 8.11297 16.2744 7.44804 15.4228C7.44326 14.7529 7.44317 14.0799 7.44724 13.4056C7.81048 13.4128 8.17457 13.4175 8.53963 13.4175C9.45183 13.4175 10.3677 13.3951 11.2764 13.3503C11.8924 13.32 12.3923 12.8535 12.4651 12.2411C12.5635 11.4141 12.5635 10.5755 12.4651 9.74847C12.3923 9.13604 11.8924 8.66954 11.2766 8.63926C10.0471 8.57879 8.80195 8.55952 7.5694 8.58099C7.75269 7.13765 8.64702 5.89643 9.97721 5.2683H14.9632C15.3128 5.43339 15.6391 5.64546 15.9335 5.90069C16 5.9584 16.082 5.98666 16.1636 5.98666C16.262 5.98666 16.3599 5.9456 16.4294 5.86544C16.5566 5.71877 16.5408 5.49672 16.3941 5.3695C16.2357 5.23215 16.0689 5.10601 15.8956 4.99032C16.1996 4.75159 16.3955 4.38104 16.3955 3.96539C16.3955 3.36876 15.9923 2.86489 15.4442 2.71105V1.46781C15.444 0.658461 14.7856 0 13.9762 0H10.9639C10.1546 0 9.49613 0.658461 9.49613 1.46781V2.71114C8.94796 2.86499 8.54474 3.36885 8.54474 3.96548C8.54474 4.38108 8.74054 4.75154 9.04448 4.99028C8.51371 5.34428 8.05325 5.79855 7.69058 6.33148C7.16252 7.10741 6.86622 8.01544 6.83374 8.95726C6.76778 10.8606 6.7368 12.7846 6.74111 14.6889C6.24901 14.2858 5.68885 14.0338 5.07989 14.0338C4.22507 14.0338 3.36007 14.5572 2.64423 15.5075C2.52737 15.6626 2.55841 15.883 2.71352 15.9998C2.86863 16.1167 3.08904 16.0857 3.20585 15.9306C3.54167 15.4848 4.23167 14.737 5.07994 14.737C5.74065 14.737 6.43473 15.1997 7.03441 16.0398C7.50926 16.705 7.87348 17.5373 8.04608 18.3322H2.11342C2.20323 17.9197 2.34606 17.4922 2.53431 17.0761C2.61433 16.8992 2.53581 16.6909 2.3589 16.6109C2.18204 16.5308 1.97373 16.6094 1.89366 16.7863C1.6628 17.2966 1.49396 17.825 1.39674 18.3321H0.914011C0.411083 18.3321 0.00195312 18.7413 0.00195312 19.2442C0.00195312 19.7471 0.41113 20.1562 0.914011 20.1562H1.08679C1.14515 20.6949 1.24355 21.2316 1.33978 21.7535C1.40836 22.1254 1.47928 22.5101 1.53319 22.8849C1.60622 23.391 2.01085 23.7848 2.51739 23.8426C3.43915 23.9474 4.2591 23.9998 5.07937 23.9998C5.89843 23.9998 6.71781 23.9475 7.63887 23.8431C7.80697 23.8239 7.96339 23.7675 8.10078 23.6831C8.45957 23.891 8.86382 23.9999 9.28472 23.9999H12.4704L12.4695 23.9997C13.29 23.9997 14.1104 23.9474 15.0326 23.8425C15.2768 23.8147 15.4969 23.7082 15.668 23.5491C16.5379 23.8494 17.4427 23.997 18.3434 23.997C20.1755 23.997 21.9902 23.3884 23.4564 22.2225C23.9895 21.7989 24.1541 21.0482 23.8475 20.4376ZM10.1993 1.46781C10.1993 1.04617 10.5423 0.703133 10.9639 0.703133H13.9762C14.3979 0.703133 14.7409 1.04617 14.7409 1.46781V2.66253H10.1993V1.46781ZM9.84769 3.36566H15.0925C15.4232 3.36566 15.6922 3.63473 15.6922 3.96544C15.6922 4.29619 15.4232 4.56526 15.0925 4.56526H9.84769C9.51694 4.56526 9.24787 4.29619 9.24787 3.96544C9.24787 3.63473 9.51699 3.36566 9.84769 3.36566ZM11.2419 9.34164C11.5139 9.355 11.7347 9.56106 11.7668 9.83158C11.8586 10.6035 11.8586 11.3863 11.7668 12.1581C11.7347 12.4286 11.5138 12.6347 11.2417 12.6481C9.98288 12.7101 8.71026 12.7282 7.45301 12.7031C7.46506 11.5628 7.48967 10.4209 7.52679 9.28516C8.76168 9.26247 10.0096 9.28108 11.2419 9.34164ZM17.5038 12.765C17.6689 12.4369 17.9867 12.241 18.3542 12.241H18.3543C18.7218 12.2411 19.0398 12.4371 19.2049 12.7652L19.6159 13.5833C19.0933 13.8534 18.7456 14.3993 18.7456 15.0107C18.7456 15.8962 19.4658 16.6167 20.3511 16.6167C20.599 16.6167 20.8402 16.5601 21.0579 16.4531L23.0249 20.3666C23.0228 20.3683 23.0209 20.3701 23.0188 20.3718C22.0299 21.1584 20.8474 21.6844 19.5992 21.8932C18.474 22.0814 17.3131 22.0096 16.2224 21.6879C16.3147 21.1865 16.4072 20.6723 16.4631 20.1562H16.636C17.139 20.1562 17.5481 19.7471 17.5481 19.2442C17.5481 18.7413 17.139 18.3321 16.636 18.3321H16.1534C16.0466 17.7839 15.8471 17.1848 15.5701 16.6125L17.5038 12.765ZM10.5152 16.0399C11.115 15.1997 11.8092 14.737 12.4698 14.737C13.1307 14.737 13.8249 15.1997 14.4245 16.0399C14.8993 16.7051 15.2635 17.5374 15.4361 18.3322H9.50358C9.67613 17.5375 10.0404 16.7052 10.5152 16.0399ZM0.705086 19.2443C0.705086 19.1291 0.798838 19.0354 0.914011 19.0354H16.636C16.7512 19.0354 16.8449 19.1291 16.8449 19.2443C16.8449 19.3595 16.7512 19.4532 16.636 19.4532H0.914011C0.798791 19.4532 0.705086 19.3595 0.705086 19.2443ZM8.56119 23.1319C8.59171 23.0534 8.6144 22.9709 8.62677 22.8848C8.65963 22.6543 8.69863 22.3797 8.73942 22.0866C8.74223 22.0668 8.74373 22.0558 8.7749 22.0558C8.80612 22.0558 8.80762 22.0668 8.81039 22.0864C8.85121 22.3797 8.89021 22.6544 8.92312 22.8853C8.9437 23.0282 8.99161 23.1617 9.06018 23.2817C8.88618 23.2584 8.71842 23.208 8.56119 23.1319ZM14.953 23.1441C13.1677 23.3469 11.7763 23.3471 9.99052 23.1445C9.79913 23.1227 9.64636 22.975 9.61913 22.7856C9.58636 22.5558 9.5475 22.282 9.50672 21.9891C9.45422 21.6144 9.15323 21.3527 8.77485 21.3527C8.39647 21.3527 8.09553 21.6144 8.04303 21.9894C8.0023 22.282 7.96344 22.5558 7.93072 22.7852C7.90344 22.975 7.75067 23.1227 7.55942 23.1445C5.77327 23.3471 4.38186 23.3469 2.59694 23.1441C2.40779 23.1225 2.25653 22.9746 2.2291 22.7847C2.17323 22.3962 2.10104 22.0047 2.0312 21.6261C1.94199 21.1424 1.85101 20.6458 1.79429 20.1563H15.7555C15.6987 20.6471 15.6075 21.1451 15.5181 21.6301C15.4485 22.0075 15.3766 22.3977 15.3207 22.7849C15.2933 22.9748 15.1421 23.1225 14.953 23.1441ZM23.0188 21.6722C21.0502 23.2376 18.3944 23.7029 16.0098 22.9218C16.012 22.9096 16.0149 22.8977 16.0167 22.8854C16.0406 22.7195 16.0681 22.5517 16.097 22.384C16.8315 22.5931 17.594 22.6992 18.3578 22.6992C18.8117 22.6992 19.2661 22.6618 19.7152 22.5867C21.0142 22.3695 22.2476 21.8375 23.2967 21.0451C23.3102 21.2818 23.2118 21.5188 23.0188 21.6722Z" fill="#1c1c1c"/>
<path d="M18.6821 20.3151C18.919 20.6596 19.2759 20.8913 19.6871 20.9674C19.7833 20.9852 19.8797 20.994 19.9754 20.994C20.289 20.994 20.5951 20.8996 20.8591 20.7181C21.2036 20.4812 21.4353 20.1243 21.5114 19.7132C21.5876 19.302 21.499 18.8858 21.2621 18.5413C21.0252 18.1967 20.6683 17.965 20.2572 17.8889C19.8459 17.8128 19.4298 17.9013 19.0853 18.1382C18.7407 18.3751 18.509 18.732 18.4329 19.1431C18.3567 19.5543 18.4452 19.9705 18.6821 20.3151ZM19.1242 19.2712C19.1662 19.0447 19.2938 18.8481 19.4836 18.7176C19.629 18.6176 19.7976 18.5656 19.9703 18.5656C20.023 18.5656 20.0762 18.5705 20.1291 18.5803C20.3556 18.6222 20.5522 18.7498 20.6828 18.9397C20.8133 19.1294 20.862 19.3587 20.8201 19.5852C20.7781 19.8117 20.6505 20.0083 20.4607 20.1388C20.2709 20.2693 20.0416 20.3181 19.8152 20.2761C19.5887 20.2342 19.3921 20.1066 19.2616 19.9168C19.1311 19.7269 19.0823 19.4977 19.1242 19.2712Z" fill="#1c1c1c"/>
<path d="M17.2051 18.207C17.2752 18.22 17.3455 18.2264 17.4153 18.2264C17.6439 18.2264 17.8671 18.1576 18.0595 18.0253C18.3107 17.8525 18.4796 17.5923 18.5351 17.2926C18.5907 16.9928 18.5261 16.6894 18.3534 16.4382C18.1807 16.1869 17.9205 16.018 17.6207 15.9625C17.0019 15.848 16.4053 16.2582 16.2907 16.877C16.176 17.4958 16.5863 18.0924 17.2051 18.207ZM16.982 17.005C17.026 16.7674 17.2551 16.6098 17.4927 16.6539C17.6077 16.6753 17.7076 16.7401 17.774 16.8366C17.8403 16.933 17.865 17.0495 17.8438 17.1646C17.8224 17.2797 17.7576 17.3796 17.6611 17.4459C17.5647 17.5122 17.4483 17.537 17.3331 17.5157C17.0955 17.4716 16.938 17.2426 16.982 17.005Z" fill="#1c1c1c"/>
</g>
<defs>
<clipPath id="clip0">
<rect width="24" height="24" fill="#1c1c1c"/>
</clipPath>
</defs>
</svg>
