<svg width="24" height="24" viewBox="0 0 24 24" fill="none" xmlns="http://www.w3.org/2000/svg">
<g clip-path="url(#clip0)">
<path d="M13.2168 7.80265H15.3762C15.6351 7.80265 15.8449 7.59279 15.8449 7.3339V5.1709C15.8449 4.91201 15.6351 4.70215 15.3762 4.70215H13.2168C12.9579 4.70215 12.748 4.91201 12.748 5.1709V7.3339C12.748 7.59279 12.9579 7.80265 13.2168 7.80265ZM13.6855 5.63969H14.9074V6.86519H13.6855V5.63969Z" fill="#1c1c1c"/>
<path d="M8.96484 7.80265H11.1242C11.3831 7.80265 11.593 7.59279 11.593 7.3339V5.1709C11.593 4.91201 11.3831 4.70215 11.1242 4.70215H8.96484C8.70595 4.70215 8.49609 4.91201 8.49609 5.1709V7.3339C8.49609 7.59279 8.70595 7.80265 8.96484 7.80265ZM9.43359 5.63969H10.6555V6.86519H9.43359V5.63969Z" fill="#1c1c1c"/>
<path d="M13.2168 12.5643H15.3762C15.6351 12.5643 15.8449 12.3545 15.8449 12.0956V9.93262C15.8449 9.67373 15.6351 9.46387 15.3762 9.46387H13.2168C12.9579 9.46387 12.748 9.67373 12.748 9.93262V12.0956C12.748 12.3544 12.9579 12.5643 13.2168 12.5643ZM13.6855 10.4013H14.9074V11.6268H13.6855V10.4013Z" fill="#1c1c1c"/>
<path d="M8.96484 12.5643H11.1242C11.3831 12.5643 11.593 12.3545 11.593 12.0956V9.93262C11.593 9.67373 11.3831 9.46387 11.1242 9.46387H8.96484C8.70595 9.46387 8.49609 9.67373 8.49609 9.93262V12.0956C8.49609 12.3544 8.70595 12.5643 8.96484 12.5643ZM9.43359 10.4013H10.6555V11.6268H9.43359V10.4013Z" fill="#1c1c1c"/>
<path d="M13.2168 17.3261H15.3762C15.6351 17.3261 15.8449 17.1162 15.8449 16.8573V14.6943C15.8449 14.4354 15.6351 14.2256 15.3762 14.2256H13.2168C12.9579 14.2256 12.748 14.4354 12.748 14.6943V16.8573C12.748 17.1162 12.9579 17.3261 13.2168 17.3261ZM13.6855 15.1631H14.9074V16.3886H13.6855V15.1631Z" fill="#1c1c1c"/>
<path d="M11.1242 17.3261C11.3831 17.3261 11.593 17.1162 11.593 16.8573V14.6943C11.593 14.4354 11.3831 14.2256 11.1242 14.2256H8.96484C8.70595 14.2256 8.49609 14.4354 8.49609 14.6943V16.8573C8.49609 17.1162 8.70595 17.3261 8.96484 17.3261H11.1242ZM9.43359 15.1631H10.6555V16.3886H9.43359V15.1631Z" fill="#1c1c1c"/>
<path d="M21.7473 23.0625H21.3114V8.90381C21.3114 8.64492 21.1016 8.43506 20.8427 8.43506H17.7887V2.62298C17.7887 2.36409 17.5788 2.15423 17.3199 2.15423H16.3212V0.46875C16.3212 0.209859 16.1113 0 15.8525 0H8.4852C8.22631 0 8.01645 0.209859 8.01645 0.46875V2.15423H7.01778C6.75889 2.15423 6.54903 2.36409 6.54903 2.62298V11.6446H3.97709C3.7182 11.6446 3.50834 11.8545 3.50834 12.1133V23.0625H2.25195C1.99306 23.0625 1.7832 23.2724 1.7832 23.5312C1.7832 23.7901 1.99306 24 2.25195 24H21.7473C22.0062 24 22.216 23.7901 22.216 23.5312C22.216 23.2724 22.0062 23.0625 21.7473 23.0625ZM8.95395 0.9375H15.3837V2.15423H8.95395V0.9375ZM4.44584 12.5821H6.54903V23.0625H4.44584V12.5821ZM7.48653 3.09173H16.8512V23.0625H14.5177V19.9698C14.5177 19.7109 14.3079 19.501 14.049 19.501H10.2887C10.0298 19.501 9.81992 19.7109 9.81992 19.9698V23.0625H7.48653V3.09173ZM10.7575 23.0625V20.4385H13.5803V23.0625H10.7575ZM17.7887 23.0625V9.37256H20.3739V23.0625H17.7887Z" fill="#1c1c1c"/>
</g>
<defs>
<clipPath id="clip0">
<rect width="24" height="24" fill="#1c1c1c"/>
</clipPath>
</defs>
</svg>
