<svg width="24" height="24" viewBox="0 0 24 24" fill="none" xmlns="http://www.w3.org/2000/svg">
<path d="M19.588 22.1621H4.05859V23.9268H19.588V22.1621Z" fill="#1c1c1c"/>
<path d="M14.6165 7.95605H9.17534C8.68798 7.95605 8.29297 8.35107 8.29297 8.83843C8.29297 9.32579 8.68798 9.7208 9.17534 9.7208H14.6165C15.1038 9.7208 15.4989 9.32579 15.4989 8.83843C15.4989 8.35107 15.1038 7.95605 14.6165 7.95605Z" fill="#1c1c1c"/>
<path d="M18.7341 12.0732H9.17534C8.68798 12.0732 8.29297 12.4683 8.29297 12.9556C8.29297 13.443 8.68798 13.838 9.17534 13.838H18.7342C19.2215 13.838 19.6165 13.443 19.6165 12.9556C19.6165 12.4683 19.2215 12.0732 18.7341 12.0732Z" fill="#1c1c1c"/>
<path d="M23.48 0.180703C23.1632 0.0383438 22.793 0.0945469 22.533 0.324234L20.0621 2.51011L17.5882 0.298031C17.2532 -0.00168751 16.7468 -0.00168751 16.4118 0.298031L13.9412 2.50744L11.4703 0.298031C11.1353 -0.00168751 10.6291 -0.00168751 10.2941 0.298031L7.8203 2.51011L5.34942 0.324234C5.08973 0.0948281 4.71914 0.038625 4.40236 0.180703C4.08591 0.323344 3.88237 0.638063 3.88237 0.985125V16.691H0.882375C0.395016 16.691 0 17.086 0 17.5733V19.7204C0 22.0395 1.88677 23.9263 4.20586 23.9263V22.1616C2.8597 22.1616 1.7647 21.0663 1.7647 19.7204V18.4557H15.5882V19.7204C15.5882 22.0395 17.475 23.9263 19.7941 23.9263C22.1132 23.9263 24 22.0395 24 19.7205V0.985078C24 0.638016 23.7965 0.323344 23.48 0.180703ZM22.2353 19.7204C22.2353 21.0663 21.14 22.1616 19.7941 22.1616C18.4483 22.1616 17.353 21.0663 17.353 19.7204V17.5733C17.353 17.086 16.958 16.691 16.4706 16.691H5.64708V2.94361L7.23914 4.35216C7.57444 4.64864 8.07853 4.64714 8.41177 4.34892L10.8824 2.13952L13.353 4.34864C13.688 4.64836 14.1944 4.64836 14.5294 4.34864L17.0003 2.13923L19.4709 4.34864C19.8044 4.64686 20.3085 4.64803 20.6435 4.35188L22.2353 2.94366V19.7204Z" fill="#1c1c1c"/>
</svg>
