<svg width="24" height="24" viewBox="0 0 24 24" fill="none" xmlns="http://www.w3.org/2000/svg">
<path d="M19.1579 11.2969H12.9102V15.9308H19.1579V11.2969H19.1579ZM17.7516 14.5245H14.3164V12.7031H17.7516V14.5245Z" fill="#1c1c1c"/>
<path d="M22.1183 19.3661V10.7007L23.9999 11.787V6.92817L12 0L7.86159 2.38931V0H3.22767V5.0647L9.375e-05 6.92817V11.787L1.8817 10.7007V19.3661H0V24H24V19.3661H22.1183ZM4.63392 1.40625H6.45534V3.20119L4.63392 4.25283V1.40625ZM1.40634 7.74005L12 1.6238L22.5937 7.74005V9.35133L12 3.23508L1.40634 9.35133V7.74005ZM3.28795 9.8888L12 4.85887L20.712 9.8888V19.3661H11.0893V11.2969H4.84153V19.3661H3.28795V9.8888ZM9.68302 19.3661H6.24773V12.7031H9.68302V19.3661ZM22.5938 22.5938H1.40625V20.7723H22.5938V22.5938Z" fill="#1c1c1c"/>
</svg>
