<svg width="24" height="24" viewBox="0 0 24 24" fill="none" xmlns="http://www.w3.org/2000/svg">
<g clip-path="url(#clip0)">
<path d="M21.9862 2.72626C19.2139 -0.061763 14.6384 0.0768301 11.9989 2.97487C9.35907 0.0769326 4.78386 -0.0618143 2.01148 2.72631C-0.745403 5.47181 -0.651486 9.99281 2.18906 12.6427C0.735831 14.0306 1.56836 16.5247 3.54637 16.7678C3.42788 18.1223 4.58069 19.3643 5.94431 19.3413C6.02791 20.8323 7.52443 21.8996 8.95919 21.5056C9.42991 23.2819 11.6927 23.8889 12.9909 22.5815C13.7281 21.8487 14.3145 21.3865 14.3519 20.2765C15.5701 20.2426 16.6242 19.1742 16.6428 17.9567C17.8727 17.9377 18.9443 16.8657 18.9632 15.6361C20.2392 15.6168 21.3455 14.4651 21.2861 13.1651L21.9861 12.4651C24.6712 9.78009 24.6712 5.41123 21.9862 2.72626ZM3.24451 13.7634L3.90198 13.1059C4.07191 12.936 4.29504 12.851 4.51826 12.851C5.28365 12.846 5.68317 13.7923 5.13444 14.3384L4.47697 14.9959C3.62592 15.7794 2.46091 14.6148 3.24451 13.7634ZM5.07777 16.9323C5.07777 16.6994 5.16845 16.4806 5.33305 16.316L5.99088 15.6582C6.15543 15.4938 6.37414 15.4033 6.60675 15.4033C7.37866 15.4019 7.76992 16.346 7.22298 16.891L6.64286 17.4711C6.46554 17.6721 6.22195 17.8081 5.94923 17.8037C5.48088 17.8134 5.06807 17.4007 5.07777 16.9323ZM7.73094 19.7916C7.39287 19.4673 7.39287 18.8836 7.73094 18.5592L8.31106 17.979C8.64928 17.5775 9.24305 17.5253 9.62092 17.9017C9.96069 18.2415 9.96069 18.7943 9.62092 19.1342L8.9634 19.7917C8.62364 20.1316 8.07075 20.1315 7.73094 19.7916ZM12.5603 20.836L11.9028 21.4935C11.7382 21.6581 11.5194 21.7488 11.2866 21.7488C11.0538 21.7488 10.8349 21.6581 10.6703 21.4935C10.3323 21.169 10.3321 20.5854 10.6704 20.261L11.3278 19.6035C11.6676 19.2637 12.2205 19.2637 12.5603 19.6035C12.8984 19.9279 12.8984 20.5116 12.5603 20.836ZM19.493 13.8453C19.1686 14.1834 18.5849 14.1834 18.2605 13.8453L14.8364 10.4212L13.7483 11.5092L17.1725 14.9334C17.5122 15.2732 17.5122 15.826 17.1725 16.1658C16.8326 16.5058 16.2798 16.5057 15.94 16.1658L12.5739 12.7998L12.5158 12.7417L11.4278 13.8298L11.4858 13.8878L14.8519 17.2539C15.1917 17.5937 15.1917 18.1466 14.8519 18.4864C14.5121 18.8262 13.9592 18.8262 13.6194 18.4864L13.6187 18.4871C12.9935 17.8827 12.1198 17.6836 11.3306 17.89C11.0793 16.8635 10.0474 16.0863 9.00961 16.1089C8.9593 15.004 8.02515 14.0058 6.92123 13.8865C7.0669 11.9908 4.98482 10.6852 3.34171 11.6191C1.05333 9.57497 0.91238 5.98658 3.09966 3.81433C5.27437 1.62438 8.86764 1.76949 10.9109 4.06295L9.00864 5.96519L10.5329 7.48946C11.7038 8.66042 13.508 8.82153 14.8533 7.97295L19.4931 12.6128C19.8328 12.9526 19.8328 13.5055 19.493 13.8453ZM20.8982 11.377L20.6637 11.6115C20.637 11.582 20.6094 11.5531 20.5811 11.5248L14.9138 5.85737L14.3697 6.40139C13.6119 7.15919 12.3788 7.15929 11.6209 6.40139L11.1847 5.96519L13.3355 3.81433C18.5603 -0.994523 25.706 6.15569 20.8982 11.377Z" fill="#1c1c1c"/>
</g>
<defs>
<clipPath id="clip0">
<rect width="24" height="24" fill="white"/>
</clipPath>
</defs>
</svg>
