<svg width="500" height="500" viewBox="0 0 500 500" fill="none" xmlns="http://www.w3.org/2000/svg">
<g clip-path="url(#clip0)">
<path d="M344.141 94.039C338.699 94.039 333.237 94.3241 327.821 94.8886C214.991 -34.0919 -0.121043 47.0223 5.1104e-05 218.518V281.279C5.1104e-05 384.522 83.9952 468.518 187.239 468.518H344.141C430.082 468.518 500 398.6 500 312.659V249.898C500 163.957 430.082 94.039 344.141 94.039ZM344.141 439.222H187.239C117.234 439.222 57.7325 393.436 37.0752 330.242C71.2403 376.044 125.834 405.758 187.239 405.758H344.141C393.398 405.758 437.386 382.782 465.968 346.992C450.967 400.15 402.032 439.222 344.141 439.222ZM344.141 376.461H187.239C-22.2558 367.8 -22.2685 69.2372 187.241 60.5751C235.288 60.5751 280.165 82.1014 310.364 119.636C313.658 123.729 318.896 125.745 324.081 124.919C399.913 112.15 471.404 172.896 470.703 249.899C470.703 319.685 413.928 376.461 344.141 376.461Z" fill="black"/>
<path d="M344.124 156.799C339.192 156.799 334.222 157.19 329.328 157.962C312.328 160.673 295.065 154.026 284.273 140.612C211.204 49.4583 62.8291 101.743 62.7441 218.52C62.7432 287.157 118.585 342.997 187.223 342.997H344.124C467.663 337.868 467.567 161.882 344.124 156.799ZM344.124 313.7H187.223C134.739 313.7 92.04 271.001 92.04 218.518C92.1133 129.195 205.598 89.2513 261.448 158.978C278.812 180.56 306.593 191.254 333.921 186.898C372.187 180.433 408.274 211.033 407.926 249.899C407.926 285.079 379.305 313.7 344.124 313.7Z" fill="black"/>
<path d="M187.225 172.49C161.845 172.49 141.195 193.139 141.195 218.519C143.724 279.581 230.733 279.565 233.253 218.519C233.253 193.139 212.605 172.49 187.225 172.49ZM187.225 235.251C177.999 235.251 170.492 227.745 170.492 218.52C171.411 196.324 203.04 196.328 203.956 218.52C203.956 227.745 196.451 235.251 187.225 235.251Z" fill="black"/>
</g>
<defs>
<clipPath id="clip0">
<rect width="500" height="500" fill="white"/>
</clipPath>
</defs>
</svg>
