<svg width="24" height="24" viewBox="0 0 24 24" fill="none" xmlns="http://www.w3.org/2000/svg">
<path d="M9.84652 12.7969H4.3125C2.37398 12.7969 0.796875 14.374 0.796875 16.3125V16.71C0.351281 16.9461 0.046875 17.4146 0.046875 17.9531V19.5469C0.046875 20.0854 0.351281 20.5539 0.796875 20.79V21.8906C0.796875 23.0537 1.74314 24 2.90625 24H20.625C20.9853 24 21.2873 23.7277 21.3244 23.3693C21.4788 21.9008 21.481 21.8277 22.758 9.70312H23.25C23.6383 9.70312 23.9531 9.38831 23.9531 9C23.9531 8.61169 23.6383 8.29688 23.25 8.29688H22.7913C22.5983 6.45412 21.6557 4.83127 20.2747 3.73955L21.1185 1.40625H22.875C23.2633 1.40625 23.5781 1.09144 23.5781 0.703125C23.5781 0.314812 23.2633 0 22.875 0H20.625C20.3289 0 20.0645 0.185531 19.9638 0.464016L19.0566 2.97286C18.1705 2.54016 17.1757 2.29688 16.125 2.29688C12.6663 2.29688 9.81126 4.92998 9.45872 8.29688H9C8.61169 8.29688 8.29688 8.61169 8.29688 9C8.29688 9.38831 8.61169 9.70312 9 9.70312H9.49195L9.84652 12.7969ZM21.3754 8.29688H18.6269L19.7633 5.15414C20.6232 5.96812 21.2115 7.06627 21.3754 8.29688ZM1.45312 19.5469V17.9531H12.7969C12.7969 17.9589 12.7977 19.475 12.7978 19.5468C12.7931 19.5475 13.0892 19.5469 1.45312 19.5469ZM13.9855 17.2031H14.4483C14.6483 17.2031 14.8388 17.118 14.9722 16.9689C15.5837 16.2855 16.6567 16.275 17.2778 16.9689C17.4112 17.1179 17.6017 17.2031 17.8017 17.2031H20.5544C20.5105 17.6238 20.4282 18.4081 20.3875 18.7968H17.8017C17.6017 18.7968 17.4112 18.882 17.2778 19.0311C16.6663 19.7144 15.5933 19.725 14.9722 19.0311C14.8388 18.882 14.6483 18.7969 14.4483 18.7969H14.2031V17.9531C14.2031 17.6775 14.1231 17.4204 13.9855 17.2031ZM18.091 15.7969C16.9676 14.795 15.2774 14.7994 14.159 15.7969H13.415C13.231 14.5511 12.3913 13.5167 11.259 13.0555C11.2587 13.0534 11.2622 13.0867 11.2233 12.7185C11.2207 12.6948 10.7291 12.7031 21.0282 12.7031C21.0037 12.9509 20.703 15.7919 20.7024 15.7969H18.091ZM21.1763 11.2969H11.0736C11.0283 10.8657 11.0298 10.8807 10.9059 9.70312H21.3439C21.2833 10.2787 21.2277 10.8078 21.1763 11.2969ZM18.5751 4.30467L17.1316 8.29688H10.8746C11.3581 4.66716 15.3298 2.60438 18.5751 4.30467ZM2.20312 16.3125C2.20312 15.1494 3.14939 14.2031 4.3125 14.2031H9.9375C11.1006 14.2031 12.0469 15.1494 12.0469 16.3125V16.5469H2.20312V16.3125ZM2.90625 22.5938C2.51855 22.5938 2.20312 22.2783 2.20312 21.8906V20.9531H12.0469V21.8906C12.0469 22.2783 11.7315 22.5938 11.3438 22.5938C10.8488 22.5938 3.39136 22.5938 2.90625 22.5938ZM19.9914 22.5938H13.3322C13.4102 22.3737 13.4531 22.1371 13.4531 21.8906V20.79C13.7027 20.6578 13.9078 20.4526 14.04 20.2031H14.159C15.2824 21.205 16.9725 21.2007 18.091 20.2031C20.4065 20.2031 20.2412 20.1982 20.2398 20.2119C20.2161 20.4352 20.0244 22.2794 19.9914 22.5938Z" fill="#1c1c1c"/>
</svg>
