<svg width="24" height="24" viewBox="0 0 24 24" fill="none" xmlns="http://www.w3.org/2000/svg">
<g clip-path="url(#clip0)">
<path d="M17.5 24C13.916 24 11 21.084 11 17.5C11 13.916 13.916 11 17.5 11C21.084 11 24 13.916 24 17.5C24 21.084 21.084 24 17.5 24ZM17.5 12C14.468 12 12 14.468 12 17.5C12 20.532 14.468 23 17.5 23C20.532 23 23 20.532 23 17.5C23 14.468 20.532 12 17.5 12Z" fill="#1c1c1c"/>
<path d="M17.5003 21.0002C17.3723 21.0002 17.2443 20.9512 17.1463 20.8542L14.1463 17.8542C13.9512 17.6592 13.9512 17.3422 14.1463 17.1472C14.3413 16.9522 14.6583 16.9522 14.8533 17.1472L17.4993 19.7932L20.1453 17.1472C20.3403 16.9522 20.6573 16.9522 20.8523 17.1472C21.0473 17.3422 21.0473 17.6592 20.8523 17.8542L17.8523 20.8542C17.7563 20.9512 17.6283 21.0002 17.5003 21.0002Z" fill="#1c1c1c"/>
<path d="M17.5 20.75C17.224 20.75 17 20.526 17 20.25V14.5C17 14.224 17.224 14 17.5 14C17.776 14 18 14.224 18 14.5V20.25C18 20.526 17.776 20.75 17.5 20.75Z" fill="#1c1c1c"/>
<path d="M10 8.00073C9.941 8.00073 9.883 7.98973 9.827 7.96973L0.327 4.46973C0.131 4.39673 0 4.21073 0 4.00073C0 3.79073 0.131 3.60473 0.327 3.53173L9.827 0.0317266C9.938 -0.00927344 10.061 -0.00927344 10.173 0.0317266L19.673 3.53173C19.869 3.60473 20 3.79073 20 4.00073C20 4.21073 19.869 4.39673 19.673 4.46973L10.173 7.96973C10.117 7.98973 10.059 8.00073 10 8.00073ZM1.946 4.00073L10 6.96773L18.054 4.00073L10 1.03373L1.946 4.00073Z" fill="#1c1c1c"/>
<path d="M8.62 19.49C8.562 19.49 8.504 19.48 8.447 19.459L0.327 16.469C0.131 16.396 0 16.21 0 16V4C0 3.724 0.224 3.5 0.5 3.5C0.776 3.5 1 3.724 1 4V15.651L8.793 18.521C9.052 18.616 9.185 18.904 9.089 19.163C9.015 19.365 8.823 19.49 8.62 19.49Z" fill="#1c1c1c"/>
<path d="M19.5 9C19.224 9 19 8.776 19 8.5V4C19 3.724 19.224 3.5 19.5 3.5C19.776 3.5 20 3.724 20 4V8.5C20 8.776 19.776 9 19.5 9Z" fill="#1c1c1c"/>
<path d="M10 13.03C9.724 13.03 9.5 12.806 9.5 12.53V7.5C9.5 7.224 9.724 7 10 7C10.276 7 10.5 7.224 10.5 7.5V12.53C10.5 12.807 10.276 13.03 10 13.03Z" fill="#1c1c1c"/>
</g>
<defs>
<clipPath id="clip0">
<rect width="24" height="24" fill="#1c1c1c"/>
</clipPath>
</defs>
</svg>
