<svg width="24" height="24" viewBox="0 0 24 24" fill="none" xmlns="http://www.w3.org/2000/svg">
<g clip-path="url(#clip0)">
<path d="M22.6773 10.6611C22.6773 8.33541 20.9502 6.40556 18.7112 6.08705C18.38 2.67534 15.496 0 11.9988 0C8.5018 0 5.618 2.67539 5.2865 6.087C3.04737 6.40552 1.32031 8.33536 1.32031 10.661C1.32031 12.4016 2.28795 13.9201 3.71338 14.7078C3.67995 15.0264 3.66284 15.3464 3.66284 15.664C3.66284 16.2812 3.72495 16.8991 3.84748 17.5005C3.91423 17.8281 4.20223 18.0633 4.53645 18.0633H5.80798C5.84478 18.1581 5.88373 18.2519 5.92484 18.3449L5.0255 19.2442C4.78911 19.4805 4.7518 19.8507 4.93634 20.1294C5.27525 20.6416 5.66825 21.1224 6.10438 21.5585C6.54097 21.9951 7.02181 22.3881 7.53359 22.7266C7.81217 22.9109 8.18225 22.8736 8.41864 22.6373L9.31794 21.738C9.41089 21.7791 9.50478 21.8181 9.59961 21.8549V23.1264C9.59961 23.4606 9.83488 23.7486 10.1623 23.8154C10.7636 23.9378 11.3815 24 11.9989 24C12.6163 24 13.2342 23.9379 13.8355 23.8154C14.163 23.7486 14.3983 23.4606 14.3983 23.1264L14.3983 21.8549C14.493 21.8181 14.5869 21.7791 14.6799 21.738L15.579 22.6372C15.8153 22.8735 16.1853 22.9108 16.464 22.7265C16.9756 22.3882 17.4566 21.9951 17.8934 21.5583C18.3299 21.1218 18.7228 20.6409 19.0614 20.1292C19.2458 19.8505 19.2085 19.4805 18.9721 19.2441L18.073 18.345C18.1141 18.252 18.1531 18.1581 18.1899 18.0633H19.4611C19.7953 18.0633 20.0833 17.828 20.1501 17.5005C20.2726 16.8989 20.3348 16.281 20.3348 15.6638C20.3347 15.3461 20.3176 15.0262 20.2843 14.7078C21.7096 13.9202 22.6773 12.4016 22.6773 10.6611ZM18.9285 15.664C18.9285 15.9961 18.9073 16.3283 18.8652 16.6571H17.6883C17.3775 16.6571 17.1035 16.8611 17.0146 17.1589C16.9117 17.5031 16.7731 17.8371 16.6024 18.1515C16.4539 18.4252 16.503 18.7639 16.7232 18.984L17.5563 19.8172C17.3537 20.0792 17.1337 20.3291 16.8988 20.564C16.6639 20.799 16.414 21.0189 16.1519 21.2215L15.3188 20.3884C15.0988 20.1682 14.7598 20.1191 14.4862 20.2676C14.1717 20.4383 13.8379 20.577 13.4938 20.6797C13.196 20.7686 12.9919 21.0426 12.9919 21.3534L12.992 22.5306C12.3347 22.6146 11.663 22.6146 11.0058 22.5306V21.3534C11.0058 21.0426 10.8017 20.7686 10.5039 20.6797C10.16 20.577 9.82611 20.4383 9.51139 20.2676C9.23769 20.119 8.89902 20.1682 8.67884 20.3884L7.84555 21.2216C7.58352 21.019 7.33363 20.799 7.09873 20.5642C6.86398 20.3295 6.644 20.0795 6.44127 19.8172L7.27447 18.984C7.49464 18.7639 7.54377 18.4251 7.39527 18.1515C7.2245 17.8368 7.08589 17.5029 6.98323 17.1591C6.89431 16.8613 6.62033 16.6572 6.3095 16.6572H5.13228C5.09023 16.3285 5.069 15.9962 5.069 15.6641C5.069 15.5103 5.07378 15.3558 5.08311 15.2012C5.36098 15.2535 5.64753 15.2812 5.94041 15.2812H8.77428C8.75947 15.4075 8.75145 15.5351 8.75145 15.6641C8.75145 17.4547 10.2082 18.9115 11.9988 18.9115C13.7895 18.9115 15.2463 17.4547 15.2463 15.6641C15.2463 15.5351 15.2383 15.4075 15.2234 15.2812H18.0571C18.35 15.2812 18.6364 15.2535 18.9143 15.2012C18.9236 15.3557 18.9284 15.5102 18.9285 15.664ZM13.7996 15.2812C13.8262 15.406 13.8401 15.5339 13.8401 15.664C13.8401 16.6792 13.0141 17.5052 11.9989 17.5052C10.9837 17.5052 10.1578 16.6792 10.1578 15.664C10.1578 15.5339 10.1716 15.406 10.1982 15.2812H13.7996ZM18.0571 13.875H12.7019V10.1349L13.6325 11.0654C13.7697 11.2027 13.9497 11.2714 14.1296 11.2714C14.3095 11.2714 14.4895 11.2027 14.6268 11.0654C14.9014 10.7909 14.9014 10.3456 14.6268 10.071L12.4961 7.94034C12.2215 7.6658 11.7763 7.6658 11.5017 7.94034L9.371 10.071C9.09641 10.3456 9.09641 10.7908 9.371 11.0654C9.64555 11.34 10.0908 11.34 10.3654 11.0654L11.2956 10.1351V13.875H5.94045C4.1683 13.875 2.72656 12.4332 2.72656 10.6611C2.72656 8.89148 4.16422 7.45134 5.93281 7.44717C5.94416 7.4475 5.95742 7.44755 5.96867 7.44741C6.35272 7.4415 6.66102 7.12814 6.66102 6.74405C6.66097 3.80077 9.05553 1.40625 11.9988 1.40625C14.9421 1.40625 17.3366 3.80077 17.3366 6.74447C17.3366 6.93192 17.4115 7.11164 17.5445 7.24364C17.6763 7.37433 17.8543 7.44759 18.0397 7.44759H18.0454C18.0522 7.4475 18.059 7.44736 18.0661 7.44712C19.8341 7.45205 21.271 8.89191 21.271 10.661C21.271 12.4332 19.8293 13.875 18.0571 13.875Z" fill="#1c1c1c"/>
</g>
<defs>
<clipPath id="clip0">
<rect width="24" height="24" fill="white"/>
</clipPath>
</defs>
</svg>
