<svg width="24" height="24" viewBox="0 0 24 24" fill="none" xmlns="http://www.w3.org/2000/svg">
<path d="M18.9512 14.7852C18.4802 13.8032 16.7951 12.4402 15.1672 11.1232C14.2592 10.3892 13.4012 9.69522 12.8542 9.14823C12.7172 9.01023 12.5122 8.96622 12.3312 9.03123C11.9942 9.15325 11.7862 9.24723 11.6222 9.32022C11.3722 9.4322 11.2882 9.47022 10.9512 9.5042C10.8022 9.5192 10.6682 9.59922 10.5852 9.7232C9.87817 10.7802 9.14617 10.6902 8.65717 10.5262C8.50117 10.4742 8.47319 10.4072 8.45819 10.3432C8.35319 9.90423 8.8802 8.88222 9.56317 8.1992C11.1882 6.5732 12.0262 6.16618 13.7962 6.9572C15.8042 7.85518 17.8162 8.55822 17.8362 8.5652C18.0992 8.65618 18.3822 8.51818 18.4732 8.25718C18.5632 7.99618 18.4262 7.71118 18.1652 7.6202C18.1451 7.61322 16.1732 6.9242 14.2052 6.04318C11.9122 5.01817 10.6541 5.69317 8.85714 7.4912C8.17314 8.1752 7.24413 9.55918 7.48413 10.5742C7.58711 11.0062 7.89114 11.3262 8.34311 11.4752C9.47613 11.8492 10.5101 11.4912 11.2801 10.4692C11.5981 10.4202 11.7711 10.3482 12.0311 10.2312C12.1251 10.1892 12.2351 10.1402 12.3811 10.0812C12.9531 10.6182 13.7251 11.2432 14.5381 11.9002C16.0081 13.0892 17.6751 14.4372 18.0501 15.2172C18.2351 15.6022 18.0361 15.8532 17.9011 15.9682C17.7031 16.1382 17.4321 16.1922 17.2851 16.0892C17.1231 15.9782 16.9121 15.9712 16.7451 16.0712C16.5771 16.1712 16.4831 16.3602 16.5041 16.5542C16.5381 16.8722 16.2471 17.0542 16.1211 17.1172C15.8011 17.2792 15.4671 17.2512 15.3421 17.1352C15.2021 17.0052 15.0011 16.9672 14.8231 17.0332C14.6451 17.1002 14.5211 17.2642 14.5031 17.4542C14.4731 17.7822 14.2301 18.0972 13.9131 18.2202C13.7601 18.2782 13.5381 18.3132 13.3391 18.1312C13.2151 18.0192 13.0431 17.9762 12.8821 18.0152C12.7191 18.0551 12.5881 18.1732 12.5311 18.3302C12.5121 18.3802 12.4691 18.5002 12.0011 18.5002C11.6681 18.5002 11.0691 18.2752 10.7761 18.0812C10.4251 17.8502 8.22409 16.2082 6.32313 14.6162C6.05613 14.3912 5.59413 13.9091 5.18613 13.4831C4.82411 13.1051 4.49313 12.7622 4.32311 12.6182C4.11011 12.4382 3.79511 12.4652 3.61811 12.6772C3.44013 12.8882 3.46609 13.2042 3.67713 13.3822C3.83214 13.5132 4.13214 13.8302 4.46313 14.1752C4.90914 14.6411 5.37011 15.1232 5.68014 15.3832C7.54216 16.9422 9.78016 18.6252 10.2261 18.9182C10.5941 19.1602 11.3871 19.5002 12.0011 19.5002C12.4941 19.5002 12.8732 19.3871 13.1361 19.1662C13.4881 19.3032 13.8881 19.3042 14.2731 19.1542C14.7281 18.9782 15.1021 18.6232 15.3141 18.1932C15.7081 18.2772 16.1591 18.2182 16.5691 18.0122C16.9701 17.8102 17.2601 17.5012 17.4041 17.1402C17.8021 17.1612 18.2121 17.0202 18.5511 16.7292C19.1252 16.2382 19.2831 15.4742 18.9512 14.7852Z" fill="#1c1c1c"/>
<path d="M10.002 6.5H5.50197C5.22597 6.5 5.00195 6.72402 5.00195 7.00002C5.00195 7.27602 5.22597 7.50003 5.50197 7.50003H10.002C10.278 7.50003 10.502 7.27602 10.502 7.00002C10.502 6.72402 10.278 6.5 10.002 6.5Z" fill="#1c1c1c"/>
<path d="M20.4141 13.7209C20.2591 13.4919 19.9491 13.4289 19.7201 13.5849L18.2581 14.5669C18.0292 14.7209 17.9681 15.0319 18.1222 15.2609C18.2191 15.4039 18.3772 15.4819 18.5382 15.4819C18.6332 15.4819 18.7302 15.4549 18.8162 15.3969L20.2782 14.4149C20.5071 14.2609 20.5681 13.9499 20.4141 13.7209Z" fill="#1c1c1c"/>
<path d="M17.3103 16.1066C16.9523 15.8246 15.3513 14.1856 14.3613 13.1536C14.1702 12.9536 13.8533 12.9466 13.6542 13.1386C13.4542 13.3297 13.4482 13.6466 13.6392 13.8457C13.8963 14.1136 16.1632 16.4767 16.6902 16.8927C16.7812 16.9647 16.8912 16.9997 16.9992 16.9997C17.1462 16.9997 17.2932 16.9337 17.3932 16.8087C17.5643 16.5926 17.5273 16.2776 17.3103 16.1066Z" fill="#1c1c1c"/>
<path d="M15.3147 17.1097C14.7157 16.6307 13.2107 15.0317 12.8707 14.6617C12.6827 14.4577 12.3677 14.4457 12.1637 14.6317C11.9607 14.8187 11.9467 15.1357 12.1337 15.3387C12.1517 15.3577 13.9477 17.2967 14.6897 17.8907C14.7817 17.9637 14.8927 17.9997 15.0017 17.9997C15.1477 17.9997 15.2936 17.9347 15.3926 17.8127C15.5647 17.5967 15.5297 17.2817 15.3147 17.1097Z" fill="#1c1c1c"/>
<path d="M13.3226 18.117C12.6095 17.516 11.1505 15.963 10.8655 15.6579C10.6765 15.456 10.3595 15.4449 10.1585 15.6339C9.95654 15.8229 9.94651 16.1389 10.1345 16.341C10.5445 16.7799 11.9405 18.26 12.6776 18.882C12.7715 18.9609 12.8855 18.9999 12.9995 18.9999C13.1415 18.9999 13.2836 18.939 13.3826 18.822C13.5605 18.6099 13.5335 18.2949 13.3226 18.117Z" fill="#1c1c1c"/>
<path d="M5.844 5.6367C4.98698 4.82468 1.56 4.56166 0.530016 4.50068C0.388031 4.4937 0.257016 4.54066 0.157031 4.63568C0.057 4.72966 0 4.86166 0 4.99966V13.9997C0 14.2757 0.224016 14.4997 0.500016 14.4997H3.50002C3.71602 14.4997 3.90802 14.3607 3.975 14.1547C4.04798 13.9307 5.77102 8.6427 5.99798 6.04268C6.01102 5.89067 5.955 5.74067 5.844 5.6367ZM3.135 13.4997H0.999984V5.53568C2.607 5.66267 4.341 5.93867 4.971 6.24467C4.70602 8.43467 3.507 12.3257 3.135 13.4997Z" fill="#1c1c1c"/>
<path d="M23.4998 5.5C19.5737 5.5 17.3957 6.505 17.3048 6.547C17.1748 6.60798 17.0777 6.721 17.0378 6.85801C16.9978 6.99503 17.0177 7.14203 17.0927 7.264C17.7107 8.25901 19.6457 13.785 20.0177 15.133C20.0777 15.35 20.2748 15.5 20.4998 15.5H23.4998C23.7758 15.5 23.9998 15.276 23.9998 15V5.99997C23.9998 5.72298 23.7758 5.5 23.4998 5.5ZM22.9998 14.5H20.8738C20.3998 12.956 18.9998 8.92998 18.2188 7.26601C18.9818 7.00703 20.6208 6.562 22.9998 6.50603V14.5Z" fill="#1c1c1c"/>
</svg>
