<svg width="24" height="24" viewBox="0 0 24 24" fill="none" xmlns="http://www.w3.org/2000/svg">
<g clip-path="url(#clip0)">
<path d="M23.9992 6.4832C23.9992 10.0691 21.0836 12.9848 17.4976 12.9848C13.9117 12.9848 10.9961 10.0691 10.9961 6.4832C10.9961 2.89726 13.9164 -0.0136719 17.4976 -0.0136719C21.0789 -0.0136719 23.9992 2.90195 23.9992 6.4832ZM23.0008 6.4832C23.0008 3.45039 20.5304 0.984764 17.4976 0.984764C14.4648 0.984764 11.9992 3.45039 11.9992 6.4832C11.9992 9.51601 14.4695 11.9816 17.4976 11.9816C20.5258 11.9816 23.0008 9.51601 23.0008 6.4832Z" fill="#1c1c1c"/>
<path d="M17.4992 2.98633C17.6258 2.98633 17.757 3.0332 17.8508 3.13164L20.8508 6.13164C21.0477 6.32852 21.0477 6.64258 20.8508 6.83946C20.6539 7.03633 20.3399 7.03633 20.143 6.83946L17.4992 4.1957L14.8555 6.83946C14.6586 7.03633 14.3445 7.03633 14.1477 6.83946C13.9508 6.64258 13.9508 6.32852 14.1477 6.13164L17.1477 3.13164C17.2461 3.0332 17.3727 2.98633 17.4992 2.98633Z" fill="#1c1c1c"/>
<path d="M17.9992 3.73594V9.4875C17.9992 9.76406 17.7742 9.98906 17.4977 9.98906C17.2211 9.98906 16.9961 9.76406 16.9961 9.4875V3.73594C16.9961 3.45937 17.2211 3.23438 17.4977 3.23438C17.7742 3.23438 17.9992 3.45937 17.9992 3.73594Z" fill="#1c1c1c"/>
<path d="M19.5465 20.4748C19.2699 20.4748 19.0449 20.2498 19.0449 19.9732V15.4732C19.0449 15.1967 19.2699 14.9717 19.5465 14.9717C19.823 14.9717 20.048 15.1967 20.048 15.4732V19.9732C20.048 20.2498 19.823 20.4748 19.5465 20.4748Z" fill="#1c1c1c"/>
<path d="M9.80756 23.0437L19.2857 19.5937C19.5388 19.5 19.8248 19.6312 19.9185 19.889C20.0123 20.1422 19.881 20.4281 19.6232 20.5219L10.1451 23.9719C9.89194 24.0656 9.606 23.9344 9.51225 23.6766C9.42319 23.4187 9.55444 23.1328 9.80756 23.0437Z" fill="#1c1c1c"/>
<path d="M0.672313 7.53276L10.1223 10.9734C10.3754 11.0671 10.5114 11.3484 10.4176 11.6062C10.3239 11.8593 10.0426 11.9953 9.78481 11.9015L0.334813 8.46088C0.0816881 8.36713 -0.0542493 8.08588 0.0395007 7.82807C0.137938 7.57495 0.419188 7.4437 0.672313 7.53276Z" fill="#1c1c1c"/>
<path d="M10.4773 11.4699V23.4418C10.4773 23.709 10.2617 23.9293 9.98984 23.9293H9.97578C9.70859 23.9293 9.48828 23.7137 9.48828 23.4418V11.4699C9.48828 11.2027 9.70391 10.9824 9.97578 10.9824H9.98984C10.2617 10.9871 10.4773 11.2027 10.4773 11.4699Z" fill="#1c1c1c"/>
<path d="M0.337598 7.46268L8.27353 4.57518C8.52666 4.48143 8.8126 4.61268 8.90635 4.87049C9.0001 5.12361 8.86885 5.40955 8.61103 5.5033L0.67041 8.38612C0.417285 8.47987 0.131348 8.34862 0.0375975 8.09081C-0.051465 7.83768 0.079785 7.55643 0.337598 7.46268Z" fill="#1c1c1c"/>
<path d="M0.984375 8.0293V20.0012C0.984375 20.2684 0.76875 20.4887 0.496875 20.4887H0.482813C0.215625 20.484 0 20.2684 0 19.9965V8.02461C0 7.75742 0.215625 7.53711 0.4875 7.53711H0.501562C0.76875 7.5418 0.984375 7.75742 0.984375 8.0293Z" fill="#1c1c1c"/>
<path d="M0.63396 19.5801L10.1636 23.0488C10.398 23.1332 10.5152 23.391 10.4308 23.6254L10.4027 23.7051C10.3183 23.9394 10.0605 24.0566 9.82615 23.9722L0.29646 20.5035C0.0620849 20.4191 -0.0551026 20.1613 0.0292724 19.9269L0.0573974 19.8472C0.141772 19.6129 0.399585 19.4957 0.63396 19.5801Z" fill="#1c1c1c"/>
</g>
<defs>
<clipPath id="clip0">
<rect width="24" height="24" fill="#1c1c1c"/>
</clipPath>
</defs>
</svg>
