<svg width="24" height="24" viewBox="0 0 24 24" fill="none" xmlns="http://www.w3.org/2000/svg">
<path d="M12.1116 20.2837C7.54406 20.2837 3.82812 16.5678 3.82812 12.0003C3.82812 7.43274 7.54406 3.7168 12.1116 3.7168C16.6791 3.7168 20.3951 7.43274 20.3951 12.0003C20.3951 16.5678 16.6791 20.2837 12.1116 20.2837ZM12.1116 5.13412C8.32557 5.13412 5.24545 8.21425 5.24545 12.0003C5.24545 15.7863 8.32557 18.8664 12.1116 18.8664C15.8976 18.8664 18.9777 15.7863 18.9777 12.0003C18.9777 8.21425 15.8976 5.13412 12.1116 5.13412Z" fill="#fff"/>
<path d="M3.51472 20.4852C1.24819 18.2187 0 15.2053 0 11.9999C0 8.7946 1.24819 5.78114 3.51472 3.51465L4.51691 4.51684C0.390756 8.64304 0.390756 15.3568 4.51691 19.483L3.51472 20.4852Z" fill="#fff"/>
<path d="M20.4846 20.4852L19.4824 19.483C23.6086 15.3568 23.6086 8.64304 19.4824 4.51684L20.4846 3.51465C22.7511 5.78114 23.9993 8.7946 23.9993 11.9999C23.9993 15.2053 22.7511 18.2187 20.4846 20.4852Z" fill="#fff"/>
<path d="M11.3848 7.62207H12.8021V13.4174H11.3848V7.62207Z" fill="#fff"/>
<path d="M11.3848 14.8662H12.8021V16.378H11.3848V14.8662Z" fill="#fff"/>
</svg>
