<svg width="24" height="24" viewBox="0 0 24 24" fill="none" xmlns="http://www.w3.org/2000/svg">
<path d="M17.8262 8.26904L14.7852 4.44043C14.2734 3.79834 13.5635 3.35791 12.7637 3.18213V1.45947C12.7637 1.04053 12.4224 0.700195 12.0024 0.700195C11.5825 0.700195 11.2407 1.04053 11.2407 1.45947V3.18066C10.4399 3.35303 9.73096 3.79443 9.22314 4.44092L6.17529 8.27246C5.86865 8.66309 5.7002 9.14648 5.7002 9.63428V21.125C5.70508 22.3262 6.68652 23.2998 7.89844 23.2998C7.90088 23.2998 7.90381 23.2998 7.90674 23.2998H16.0898C16.0967 23.2998 16.1025 23.2998 16.1094 23.2998C17.3086 23.2998 18.29 22.333 18.2998 21.124V9.63428C18.2998 9.14844 18.1318 8.66357 17.8262 8.26904ZM12.0024 10.291C11.4268 10.291 10.9585 9.8252 10.9585 9.25293C10.9585 8.68066 11.4268 8.21484 12.0024 8.21484C12.5776 8.21484 13.0459 8.68066 13.0459 9.25293C13.0459 9.8252 12.5776 10.291 12.0024 10.291ZM11.2407 6.80859C10.6709 6.98291 10.1846 7.34619 9.854 7.84912C9.47852 8.42041 9.34863 9.10352 9.4873 9.77344C9.77393 11.1533 11.1323 12.0454 12.5244 11.7583C13.1973 11.6196 13.7754 11.2285 14.1514 10.6562C14.5264 10.0854 14.6562 9.40186 14.5176 8.73096C14.3232 7.81445 13.6475 7.08252 12.7637 6.80908V4.76709C12.8037 4.7832 12.8433 4.80078 12.8828 4.81934C13.1572 4.95215 13.3994 5.14697 13.5869 5.38477L16.6338 9.2085C16.7285 9.32959 16.7812 9.48047 16.7812 9.63428V21.124C16.7812 21.4922 16.4805 21.7803 16.0977 21.7803H7.90674C7.52344 21.7803 7.22314 21.4922 7.22314 21.124V9.63428C7.22314 9.47998 7.2749 9.33154 7.37061 9.21387L10.4131 5.38477C10.6343 5.10791 10.9204 4.89551 11.2407 4.76611V6.80859Z" fill="#1C1C1C"/>
</svg>
