<svg width="24" height="24" viewBox="0 0 24 24" fill="none" xmlns="http://www.w3.org/2000/svg">
<path d="M12.1111 20.2835C7.54357 20.2835 3.82764 16.5675 3.82764 12C3.82764 7.43249 7.54357 3.71655 12.1111 3.71655C16.6786 3.71655 20.3946 7.43249 20.3946 12C20.3946 16.5675 16.6786 20.2835 12.1111 20.2835ZM12.1111 5.13388C8.32509 5.13388 5.24496 8.21401 5.24496 12C5.24496 15.786 8.32509 18.8661 12.1111 18.8661C15.8971 18.8661 18.9772 15.786 18.9772 12C18.9772 8.21401 15.8971 5.13388 12.1111 5.13388Z" fill="#ED145B"/>
<path d="M3.51472 20.4853C1.24819 18.2188 0 15.2053 0 12C0 8.79466 1.24819 5.7812 3.51472 3.51471L4.51691 4.5169C0.390756 8.64311 0.390756 15.3569 4.51691 19.4831L3.51472 20.4853Z" fill="#ED145B"/>
<path d="M20.4841 20.4853L19.4819 19.4831C23.6081 15.3569 23.6081 8.64311 19.4819 4.5169L20.4841 3.51471C22.7506 5.7812 23.9988 8.79466 23.9988 12C23.9988 15.2053 22.7506 18.2188 20.4841 20.4853Z" fill="#ED145B"/>
<path d="M11.3853 7.62201H12.8026V13.4173H11.3853V7.62201Z" fill="#ED145B"/>
<path d="M11.3853 14.8661H12.8026V16.3779H11.3853V14.8661Z" fill="#ED145B"/>
</svg>
