<svg width="20" height="20" viewBox="0 0 20 20" fill="none" xmlns="http://www.w3.org/2000/svg">
<g clip-path="url(#clip0)">
<path d="M19.5575 4.9408L19.5825 5.10414C19.3409 4.24664 18.6884 3.58497 17.8592 3.34414L17.8417 3.33997C16.2825 2.91664 10.0084 2.91664 10.0084 2.91664C10.0084 2.91664 3.75003 2.9083 2.17503 3.33997C1.33003 3.58497 0.676698 4.24664 0.439198 5.08664L0.435032 5.10414C-0.147468 8.14664 -0.151635 11.8025 0.460865 15.06L0.435032 14.895C0.676698 15.7525 1.3292 16.4141 2.15836 16.655L2.17586 16.6591C3.73336 17.0833 10.0092 17.0833 10.0092 17.0833C10.0092 17.0833 16.2667 17.0833 17.8425 16.6591C18.6884 16.4141 19.3417 15.7525 19.5792 14.9125L19.5834 14.895C19.8484 13.48 20 11.8516 20 10.1883C20 10.1275 20 10.0658 19.9992 10.0041C20 9.94747 20 9.87997 20 9.81247C20 8.1483 19.8484 6.51997 19.5575 4.9408ZM8.0067 13.0425V6.96497L13.2284 10.0083L8.0067 13.0425Z" fill="white"/>
</g>
<defs>
<clipPath id="clip0">
<rect width="20" height="20" fill="white"/>
</clipPath>
</defs>
</svg>
