<svg width="20" height="20" viewBox="0 0 20 20" fill="none" xmlns="http://www.w3.org/2000/svg">
<g clip-path="url(#clip0)">
<path d="M10.0033 4.86499C7.16748 4.86499 4.87164 7.16332 4.87164 9.99665C4.87164 12.8325 7.16998 15.1283 10.0033 15.1283C12.8391 15.1283 15.135 12.83 15.135 9.99665C15.135 7.16082 12.8366 4.86499 10.0033 4.86499ZM10.0033 13.3275C8.16248 13.3275 6.67248 11.8367 6.67248 9.99665C6.67248 8.15665 8.16331 6.66582 10.0033 6.66582C11.8433 6.66582 13.3341 8.15665 13.3341 9.99665C13.335 11.8367 11.8441 13.3275 10.0033 13.3275Z" fill="white"/>
<path d="M14.1232 0.0636766C12.2832 -0.0221566 7.72575 -0.0179899 5.88408 0.0636766C4.26575 0.13951 2.83825 0.530343 1.68741 1.68117C-0.235919 3.60451 0.00991473 6.19617 0.00991473 9.997C0.00991473 13.887 -0.206752 16.4187 1.68741 18.3128C3.61825 20.2428 6.24741 19.9903 10.0032 19.9903C13.8566 19.9903 15.1866 19.9928 16.5491 19.4653C18.4016 18.7462 19.7999 17.0903 19.9366 14.1162C20.0232 12.2753 20.0182 7.71867 19.9366 5.877C19.7716 2.36617 17.8874 0.23701 14.1232 0.0636766ZM17.0357 17.0403C15.7749 18.3012 14.0257 18.1887 9.97908 18.1887C5.81242 18.1887 4.14158 18.2503 2.92241 17.0278C1.51825 15.6303 1.77241 13.3862 1.77241 9.98367C1.77241 5.3795 1.29991 2.06367 5.92075 1.82701C6.98242 1.78951 7.29492 1.77701 9.96741 1.77701L10.0049 1.80201C14.4457 1.80201 17.9299 1.33701 18.1391 5.957C18.1866 7.01117 18.1974 7.32784 18.1974 9.99617C18.1966 14.1145 18.2749 15.7953 17.0357 17.0403Z" fill="white"/>
<path d="M15.3383 5.86171C16.0006 5.86171 16.5375 5.32482 16.5375 4.66254C16.5375 4.00026 16.0006 3.46338 15.3383 3.46338C14.676 3.46338 14.1392 4.00026 14.1392 4.66254C14.1392 5.32482 14.676 5.86171 15.3383 5.86171Z" fill="white"/>
</g>
<defs>
<clipPath id="clip0">
<rect width="20" height="20" fill="white"/>
</clipPath>
</defs>
</svg>
