<svg width="20" height="20" viewBox="0 0 20 20" fill="none" xmlns="http://www.w3.org/2000/svg">
<g clip-path="url(#clip0)">
<path d="M3.93418 10.7342C3.42334 11.7384 4.00334 12.2184 5.32668 13.0384C6.45168 13.7334 8.00584 13.9875 9.00418 14.0892C8.59501 14.4825 10.47 12.6792 5.07001 17.8734C3.92501 18.9709 5.76834 20.7317 6.91251 19.6575L10.01 16.67C11.1958 17.8109 12.3325 18.9042 13.1075 19.6617C14.2525 20.74 16.095 18.9942 14.9625 17.8775C14.8775 17.7967 10.765 13.8517 11.0158 14.0934C12.0267 13.9917 13.5575 13.7225 14.6692 13.0425L14.6683 13.0417C15.9917 12.2175 16.5717 11.7384 16.0683 10.7342C15.7642 10.1642 14.9442 9.68753 13.8525 10.5117C13.8525 10.5117 12.3783 11.6409 10.0008 11.6409C7.62251 11.6409 6.14918 10.5117 6.14918 10.5117C5.05834 9.68337 4.23501 10.1642 3.93418 10.7342Z" fill="white"/>
<path d="M9.99917 10.1183C12.8975 10.1183 15.2642 7.85333 15.2642 5.065C15.2642 2.265 12.8975 0 9.99917 0C7.1 0 4.73334 2.265 4.73334 5.065C4.73334 7.85333 7.1 10.1183 9.99917 10.1183ZM9.99917 2.56583C11.4233 2.56583 12.585 3.68333 12.585 5.065C12.585 6.435 11.4233 7.5525 9.99917 7.5525C8.575 7.5525 7.41334 6.435 7.41334 5.065C7.4125 3.6825 8.57417 2.56583 9.99917 2.56583Z" fill="white"/>
</g>
<defs>
<clipPath id="clip0">
<rect width="20" height="20" fill="white"/>
</clipPath>
</defs>
</svg>
