<svg width="18" height="18" viewBox="0 0 18 18" fill="none" xmlns="http://www.w3.org/2000/svg">
<path fill-rule="evenodd" clip-rule="evenodd" d="M2.24935 10.4167C2.70959 10.4167 3.08268 10.7898 3.08268 11.25V14.25C3.08268 14.4268 3.15292 14.5964 3.27794 14.7214C3.40297 14.8464 3.57254 14.9167 3.74935 14.9167H14.2493C14.4262 14.9167 14.5957 14.8464 14.7208 14.7214C14.8458 14.5964 14.916 14.4268 14.916 14.25V11.25C14.916 10.7898 15.2891 10.4167 15.7493 10.4167C16.2096 10.4167 16.5827 10.7898 16.5827 11.25V14.25C16.5827 14.8688 16.3368 15.4623 15.8993 15.8999C15.4617 16.3375 14.8682 16.5833 14.2493 16.5833H3.74935C3.13051 16.5833 2.53702 16.3375 2.09943 15.8999C1.66185 15.4623 1.41602 14.8688 1.41602 14.25V11.25C1.41602 10.7898 1.78911 10.4167 2.24935 10.4167Z" fill="white"/>
<path fill-rule="evenodd" clip-rule="evenodd" d="M4.66009 6.58926C4.98553 6.9147 5.51317 6.9147 5.8386 6.58926L8.99935 3.42851L12.1601 6.58926C12.4855 6.9147 13.0132 6.9147 13.3386 6.58926C13.664 6.26382 13.664 5.73618 13.3386 5.41075L9.5886 1.66075C9.43232 1.50447 9.22036 1.41667 8.99935 1.41667C8.77834 1.41667 8.56637 1.50447 8.41009 1.66075L4.66009 5.41075C4.33466 5.73618 4.33466 6.26382 4.66009 6.58926Z" fill="white"/>
<path fill-rule="evenodd" clip-rule="evenodd" d="M8.99935 12.0833C9.45959 12.0833 9.83268 11.7102 9.83268 11.25V2.25C9.83268 1.78977 9.45959 1.41667 8.99935 1.41667C8.53911 1.41667 8.16602 1.78977 8.16602 2.25V11.25C8.16602 11.7102 8.53911 12.0833 8.99935 12.0833Z" fill="white"/>
</svg>
