<?xml version="1.0" encoding="UTF-8"?>
<svg id="svg6" width="20" height="20" fill="none" version="1.1" viewBox="0 0 20 20" xmlns="http://www.w3.org/2000/svg" xmlns:cc="http://creativecommons.org/ns#" xmlns:dc="http://purl.org/dc/elements/1.1/" xmlns:rdf="http://www.w3.org/1999/02/22-rdf-syntax-ns#">
 <metadata id="metadata12">
  <rdf:RDF>
   <cc:Work rdf:about="">
    <dc:format>image/svg+xml</dc:format>
    <dc:type rdf:resource="http://purl.org/dc/dcmitype/StillImage"/>
    <dc:title/>
   </cc:Work>
  </rdf:RDF>
 </metadata>
 <path id="path2" d="m0.83335 10s3.3333-6.6667 9.1667-6.6667 9.1666 6.6667 9.1666 6.6667-3.3333 6.6667-9.1666 6.6667-9.1667-6.6667-9.1667-6.6667z" stroke="#ffffff" stroke-linecap="round" stroke-linejoin="round" stroke-width="1.6667"/>
 <path id="path4" d="m10 12.5c1.3807 0 2.5-1.1193 2.5-2.5 0-1.3807-1.1193-2.5-2.5-2.5-1.3807 0-2.5 1.1193-2.5 2.5 0 1.3807 1.1193 2.5 2.5 2.5z" stroke="white" stroke-linecap="round" stroke-linejoin="round" stroke-width="1.6667"/>
 <g id="g4503" transform="translate(.000346 7.5e-5)" fill="none" stroke="#ffffff" stroke-linecap="round" stroke-linejoin="round" stroke-width="1.6667">
  <path id="path4489" d="m0.83301 9.9999s3.3333-6.6667 9.1667-6.6667 9.1666 6.6667 9.1666 6.6667-3.3333 6.6667-9.1666 6.6667-9.1667-6.6667-9.1667-6.6667z"/>
  <path id="path4491" d="m10 12.5c1.3807 0 2.5-1.1193 2.5-2.5 0-1.3807-1.1193-2.5-2.5-2.5-1.3807 0-2.5 1.1193-2.5 2.5 0 1.3807 1.1193 2.5 2.5 2.5z"/>
 </g>
</svg>
