<svg width="18" height="18" viewBox="0 0 18 18" fill="none" xmlns="http://www.w3.org/2000/svg">
<rect width="16.2" height="1.8" transform="matrix(-1 0 0 1 18 13.2)" fill="#8A8A99"/>
<rect width="13.8" height="1.8" transform="matrix(4.37114e-08 -1 -1 -4.37114e-08 3 15)" fill="#8A8A99"/>
<rect width="3" height="1.8" transform="matrix(-1 0 0 1 3 0.600098)" fill="#8A8A99"/>
<path d="M14.4002 16.8C13.4061 16.8 12.6002 15.9941 12.6002 15H16.2002C16.2002 15.9941 15.3943 16.8 14.4002 16.8Z" fill="#8A8A99"/>
<path d="M5.9998 16.8C5.00569 16.8 4.19981 15.9941 4.19981 15H7.7998C7.7998 15.9941 6.99392 16.8 5.9998 16.8Z" fill="#8A8A99"/>
<path fill-rule="evenodd" clip-rule="evenodd" d="M12.6002 1.19995V2.99995L16.2002 2.99995V1.19995H12.6002ZM16.2002 9.59995V6.59995V4.79995H14.4002L12.6002 4.79995V6.59995L8.4002 6.59995V4.79995L6.6002 4.79995H4.80019V6.59995V9.59995V11.4H6.6002H14.4002H16.2002V9.59995ZM9.6002 4.79995L11.4002 4.79995V1.19995H9.6002L9.6002 4.79995ZM4.80019 2.99995V1.19995H8.4002V2.99995L4.80019 2.99995Z" fill="#8A8A99"/>
</svg>
