<svg width="18" height="18" viewBox="0 0 18 18" fill="none" xmlns="http://www.w3.org/2000/svg">
<path d="M7.38489 9.59766H3.23438C1.78049 9.59766 0.597656 10.7805 0.597656 12.2344V12.5325C0.263461 12.7096 0.0351562 13.061 0.0351562 13.4648V14.6602C0.0351562 15.064 0.263461 15.4154 0.597656 15.5925V16.418C0.597656 17.2903 1.30736 18 2.17969 18H15.4688C15.739 18 15.9654 17.7958 15.9933 17.527C16.1091 16.4256 16.1107 16.3708 17.0685 7.27734H17.4375C17.7287 7.27734 17.9648 7.04123 17.9648 6.75C17.9648 6.45877 17.7287 6.22266 17.4375 6.22266H17.0935C16.9487 4.84059 16.2418 3.62345 15.2061 2.80466L15.8388 1.05469H17.1562C17.4475 1.05469 17.6836 0.818578 17.6836 0.527344C17.6836 0.236109 17.4475 0 17.1562 0H15.4688C15.2467 0 15.0484 0.139148 14.9728 0.348012L14.2925 2.22964C13.6279 1.90512 12.8818 1.72266 12.0938 1.72266C9.49975 1.72266 7.35845 3.69749 7.09404 6.22266H6.75C6.45877 6.22266 6.22266 6.45877 6.22266 6.75C6.22266 7.04123 6.45877 7.27734 6.75 7.27734H7.11896L7.38489 9.59766ZM16.0316 6.22266H13.9702L14.8224 3.86561C15.4674 4.47609 15.9086 5.2997 16.0316 6.22266ZM1.08984 14.6602V13.4648H9.59766C9.59766 13.4692 9.59829 14.6063 9.59832 14.6601C9.59481 14.6606 9.81689 14.6602 1.08984 14.6602ZM10.4891 12.9023H10.8362C10.9862 12.9023 11.1291 12.8385 11.2292 12.7267C11.6878 12.2142 12.4925 12.2062 12.9583 12.7267C13.0584 12.8384 13.2013 12.9023 13.3513 12.9023H15.4158C15.3829 13.2179 15.3212 13.8061 15.2906 14.0976H13.3513C13.2013 14.0976 13.0584 14.1615 12.9583 14.2733C12.4997 14.7858 11.695 14.7937 11.2292 14.2733C11.1291 14.1615 10.9862 14.0977 10.8362 14.0977H10.6523V13.4648C10.6523 13.2581 10.5923 13.0653 10.4891 12.9023ZM13.5682 11.8477C12.7257 11.0962 11.4581 11.0995 10.6192 11.8477H10.0612C9.92327 10.9133 9.29345 10.1375 8.44421 9.79165C8.44404 9.79003 8.44664 9.81503 8.41746 9.53888C8.41556 9.52112 8.04684 9.52734 15.7712 9.52734C15.7527 9.71318 15.5272 11.8439 15.5268 11.8477H13.5682ZM15.8823 8.47266H8.30521C8.27121 8.14929 8.27234 8.1605 8.17945 7.27734H16.0079C15.9625 7.70899 15.9208 8.10584 15.8823 8.47266ZM13.9313 3.2285L12.8487 6.22266H8.15593C8.51861 3.50037 11.4973 1.95328 13.9313 3.2285ZM1.65234 12.2344C1.65234 11.362 2.36204 10.6523 3.23438 10.6523H7.45312C8.32546 10.6523 9.03516 11.362 9.03516 12.2344V12.4102H1.65234V12.2344ZM2.17969 16.9453C1.88891 16.9453 1.65234 16.7087 1.65234 16.418V15.7148H9.03516V16.418C9.03516 16.7087 8.79859 16.9453 8.50781 16.9453C8.13663 16.9453 2.54352 16.9453 2.17969 16.9453ZM14.9936 16.9453H9.99914C10.0577 16.7803 10.0898 16.6028 10.0898 16.418V15.5925C10.277 15.4933 10.4309 15.3395 10.53 15.1523H10.6192C11.4618 15.9037 12.7294 15.9005 13.5682 15.1523C15.3049 15.1523 15.1809 15.1487 15.1798 15.159C15.162 15.3264 15.0183 16.7096 14.9936 16.9453Z" fill="white"/>
</svg>
