<svg width="18" height="18" viewBox="0 0 18 18" fill="none" xmlns="http://www.w3.org/2000/svg">
<path fill-rule="evenodd" clip-rule="evenodd" d="M9 0C8.44772 0 8 0.447715 8 1V1.6716C7.81214 1.73803 7.62936 1.82376 7.4546 1.92879L4.4546 3.73182C3.55207 4.27425 3 5.25016 3 6.30315V15C3 16.6568 4.34315 18 6 18H12C13.6569 18 15 16.6568 15 15V6.30315C15 5.25016 14.4479 4.27425 13.5454 3.73182L10.5454 1.92879C10.3706 1.82376 10.1879 1.73803 10 1.6716V1C10 0.447715 9.55228 0 9 0ZM8 3.35107L5.2273 5.01749C4.77603 5.2887 4.5 5.77665 4.5 6.30315V15C4.5 15.8284 5.17157 16.5 6 16.5H12C12.8284 16.5 13.5 15.8284 13.5 15V6.30315C13.5 5.77666 13.224 5.2887 12.7727 5.01749L10 3.35107V5.43747C11.0243 5.8375 11.75 6.83401 11.75 8C11.75 9.51878 10.5188 10.75 9 10.75C7.48122 10.75 6.25 9.51878 6.25 8C6.25 6.83401 6.97566 5.8375 8 5.43747V3.35107ZM9 6.75C8.30964 6.75 7.75 7.30964 7.75 8C7.75 8.69036 8.30964 9.25 9 9.25C9.69036 9.25 10.25 8.69036 10.25 8C10.25 7.30964 9.69036 6.75 9 6.75Z" fill="white"/>
</svg>
