<svg width="18" height="18" viewBox="0 0 18 18" fill="none" xmlns="http://www.w3.org/2000/svg">
<path d="M5.24832 2.99998L8.99474 2.99998C9.40857 2.99998 9.74402 3.33548 9.74402 3.74927C9.74402 4.16306 9.40857 4.49855 8.99474 4.49855L5.24832 4.49855C4.83519 4.49855 4.49904 4.8347 4.49904 5.24783L4.49904 13.4899C4.49904 13.9031 4.83518 14.2392 5.24832 14.2392L13.4904 14.2392C13.9036 14.2392 14.2397 13.9031 14.2397 13.4899L14.2397 9.74353C14.2397 9.32974 14.5752 8.99425 14.989 8.99425C15.4028 8.99425 15.7383 9.32974 15.7383 9.74353L15.7383 13.4899C15.7383 14.7294 14.7299 15.7378 13.4904 15.7378L5.24832 15.7378C4.00882 15.7378 3.00047 14.7294 3.00047 13.4899L3.00047 5.24783C3.00047 4.00833 4.00887 2.99998 5.24832 2.99998Z" fill="white"/>
<path d="M15.7399 3.67923C15.7181 3.45599 15.594 3.23973 15.3779 3.11048C15.1398 2.9683 15.1901 3.00399 12.875 3.00399C12.4612 3.00399 12.1257 3.33948 12.1257 3.75327C12.1257 4.16706 12.4612 4.50255 12.875 4.50255H13.1854L9.21948 8.46846C8.92684 8.76105 8.92684 9.23549 9.21948 9.52809C9.51203 9.82068 9.98652 9.82073 10.2791 9.52809L14.245 5.56218V5.87257C14.245 6.28636 14.5805 6.62185 14.9943 6.62185C15.4082 6.62185 15.7436 6.28636 15.7436 5.87257C15.7436 3.56333 15.7452 3.73355 15.7399 3.67923Z" fill="white"/>
</svg>
