<svg width="18" height="18" viewBox="0 0 18 18" fill="none" xmlns="http://www.w3.org/2000/svg">
<path d="M13.49 15.7378H9.74355C9.32971 15.7378 8.99426 15.4023 8.99426 14.9885C8.99426 14.5747 9.32971 14.2392 9.74355 14.2392H13.49C13.9031 14.2392 14.2392 13.9031 14.2392 13.49V5.24785C14.2392 4.83471 13.9031 4.49857 13.49 4.49857H5.24785C4.83471 4.49857 4.49857 4.83471 4.49857 5.24785V8.99426C4.49857 9.40805 4.16312 9.74355 3.74928 9.74355C3.33544 9.74355 3 9.40805 3 8.99426V5.24785C3 4.00839 4.00835 3 5.24785 3H13.49C14.7295 3 15.7378 4.00839 15.7378 5.24785V13.49C15.7378 14.7295 14.7294 15.7378 13.49 15.7378Z" fill="white"/>
<path d="M10.4879 9.29544C10.4662 9.0722 10.342 8.85594 10.1259 8.72669C9.88781 8.58451 9.93811 8.6202 7.62305 8.6202C7.20921 8.6202 6.87377 8.95569 6.87377 9.36948C6.87377 9.78327 7.20921 10.1188 7.62305 10.1188H7.93344L3.96753 14.0847C3.67489 14.3773 3.67489 14.8517 3.96753 15.1443C4.26008 15.4369 4.73456 15.4369 5.02716 15.1443L8.99307 11.1784V11.4888C8.99307 11.9026 9.32852 12.2381 9.74236 12.2381C10.1562 12.2381 10.4916 11.9026 10.4916 11.4888C10.4916 9.17954 10.4932 9.34976 10.4879 9.29544Z" fill="white"/>
</svg>
