<svg width="18" height="18" viewBox="0 0 18 18" fill="none" xmlns="http://www.w3.org/2000/svg">
<g clip-path="url(#clip0)">
<path d="M17.6272 8.97679C17.6228 8.97239 17.2582 8.72753 16.8462 8.52433C16.4409 8.32439 15.9536 8.40508 15.634 8.72468L12.9439 11.4142C12.4454 11.9122 11.7842 12.1867 11.0797 12.1867H6.81015V11.132C6.91847 11.132 10.9515 11.132 10.8432 11.132C10.8432 10.9908 10.8432 8.91431 10.8432 9.02263C10.6455 9.02263 5.38671 9.02263 5.57624 9.02263C4.87072 9.02263 4.20638 9.29868 3.70582 9.79923L0 13.505L3.90976 17.4148L7.02851 14.2961H11.0848C12.3486 14.2961 13.5372 13.8032 14.4301 12.9097C15.5351 11.8163 16.9682 10.3318 18 9.29997L17.6272 8.97679Z" fill="#8A8A99"/>
<path fill-rule="evenodd" clip-rule="evenodd" d="M11.7471 0V1.27059L14.3997 1.27059L14.3997 0H11.7471ZM14.3999 2.54118L14.3997 2.54118L13.0736 2.54118L11.7471 2.54118V3.81176L8.65253 3.81176V2.54118L7.32624 2.54118H5.99992L5.9999 2.54118V3.81177H5.99992V5.92941H5.9999V7.2L5.99992 7.2H7.32624H13.0736H14.3999V2.54118ZM9.53685 2.54118H10.8632L10.8632 0H9.53685V2.54118ZM5.9999 1.27059V0H8.65253V1.27059L5.9999 1.27059Z" fill="#8A8A99"/>
</g>
<defs>
<clipPath id="clip0">
<rect width="18" height="18" fill="white"/>
</clipPath>
</defs>
</svg>
