<svg width="18" height="18" viewBox="0 0 18 18" fill="none" xmlns="http://www.w3.org/2000/svg">
<g clip-path="url(#clip0)">
<path d="M17.25 3V7.5H12.75" stroke="white" stroke-width="1.66667" stroke-linecap="round" stroke-linejoin="round"/>
<path d="M0.75 15V10.5H5.25" stroke="white" stroke-width="1.66667" stroke-linecap="round" stroke-linejoin="round"/>
<path fill-rule="evenodd" clip-rule="evenodd" d="M10.663 3.23798C9.68937 2.95636 8.66028 2.92597 7.67173 3.14964C6.68318 3.37331 5.76741 3.84375 5.00985 4.51708C4.25229 5.1904 3.67765 6.04466 3.33954 7.00013C3.20136 7.39062 2.77279 7.59515 2.3823 7.45697C1.99182 7.31879 1.78728 6.89022 1.92546 6.49974C2.3481 5.30539 3.06641 4.23757 4.01335 3.39592C4.9603 2.55427 6.10502 1.96621 7.3407 1.68662C8.57639 1.40703 9.86276 1.44502 11.0798 1.79705C12.293 2.14796 13.3978 2.79951 14.2919 3.69121L17.7636 6.95337C18.0654 7.23701 18.0802 7.71166 17.7966 8.01352C17.5129 8.31538 17.0383 8.33014 16.7364 8.0465L13.2564 4.7765C13.2507 4.77113 13.2451 4.76568 13.2395 4.76013C12.523 4.04327 11.6366 3.5196 10.663 3.23798ZM0.203438 9.98635C0.487081 9.68449 0.961725 9.66973 1.26358 9.95337L4.74358 13.2234C4.7493 13.2287 4.75492 13.2342 4.76047 13.2397C5.47696 13.9566 6.36338 14.4803 7.337 14.7619C8.31063 15.0435 9.33973 15.0739 10.3283 14.8502C11.3168 14.6266 12.2326 14.1561 12.9902 13.4828C13.7477 12.8095 14.3224 11.9552 14.6605 10.9997C14.7986 10.6093 15.2272 10.4047 15.6177 10.5429C16.0082 10.6811 16.2127 11.1096 16.0745 11.5001C15.6519 12.6945 14.9336 13.7623 13.9866 14.6039C13.0397 15.4456 11.895 16.0337 10.6593 16.3132C9.42362 16.5928 8.13724 16.5548 6.92021 16.2028C5.70705 15.8519 4.60221 15.2004 3.70808 14.3087L0.23642 11.0465C-0.0654396 10.7629 -0.0802062 10.2882 0.203438 9.98635Z" fill="white"/>
</g>
<defs>
<clipPath id="clip0">
<rect width="18" height="18" fill="white"/>
</clipPath>
</defs>
</svg>
