<svg width="18" height="18" viewBox="0 0 18 18" fill="none" xmlns="http://www.w3.org/2000/svg">
<g clip-path="url(#clip0)">
<path fill-rule="evenodd" clip-rule="evenodd" d="M9.79939 6.30055H4.99843L9.80182 1.49716C10.4647 0.834281 11.5394 0.834281 12.2023 1.49716C12.8652 2.16003 12.8652 3.23477 12.2023 3.89764L9.79939 6.30055ZM12.9094 4.60475L11.2136 6.30055H13.8011C15.2908 6.30055 16.4985 7.50821 16.4985 8.99794C16.4985 9.74961 16.1911 10.4295 15.6951 10.9186C15.6665 10.95 15.6371 10.9808 15.6068 11.0111L9.40792 17.21C8.35452 18.2634 6.64662 18.2634 5.59322 17.21C4.53982 16.1566 4.53982 14.4487 5.59322 13.3953L7.29313 11.6953H4.6974C3.20767 11.6953 2 10.4877 2 8.99794C2 8.20735 2.34012 7.4962 2.88203 7.00283L2.89582 6.98893L9.09471 0.790049C10.1481 -0.26335 11.856 -0.263349 12.9094 0.79005C13.9628 1.84345 13.9628 3.55135 12.9094 4.60475ZM6.81882 10.6953L6.81881 10.6953H8.29313L8.29314 10.6953H9.70736L9.70735 10.6953H13.8011C14.2558 10.6953 14.6687 10.5166 14.9734 10.2255C14.9734 10.2255 14.9734 10.2255 14.9735 10.2255C15.297 9.91638 15.4985 9.48069 15.4985 8.99794C15.4985 8.06049 14.7386 7.30054 13.8011 7.30054H4.6974C3.75995 7.30054 3 8.06049 3 8.99794C3 9.93538 3.75995 10.6953 4.6974 10.6953H6.81882ZM6.30033 14.1024L8.70735 11.6953H13.5083L8.70081 16.5028C8.03794 17.1657 6.9632 17.1657 6.30033 16.5028C5.63745 15.84 5.63745 14.7652 6.30033 14.1024Z" fill="white"/>
</g>
<defs>
<clipPath id="clip0">
<rect width="18" height="18" fill="white"/>
</clipPath>
</defs>
</svg>
